<svg width="24" height="24" viewBox="0 0 24 24" fill="none" xmlns="http://www.w3.org/2000/svg">
<path d="M23.509 0H0V23.59H23.509V15.805C23.6076 15.6504 23.6561 15.4692 23.648 15.286C23.6619 15.1029 23.6128 14.9205 23.509 14.769" fill="url(#paint0_radial_71_101)"/>
<path d="M2.119 10.2079L1.66699 9.10787L1.217 10.2079H2.119ZM12.081 9.76885C11.9793 9.81756 11.8662 9.83729 11.754 9.82586H10.954V9.21188H11.768C11.8748 9.2035 11.9821 9.22063 12.081 9.26186C12.1257 9.28426 12.1627 9.31939 12.1875 9.36282C12.2122 9.40624 12.2235 9.456 12.22 9.50585C12.2237 9.55844 12.2127 9.61103 12.1881 9.65768C12.1636 9.70432 12.1265 9.74317 12.081 9.76986V9.76885ZM17.806 10.2079L17.349 9.10787L16.894 10.2079H17.806ZM7.133 11.4009H6.45599V9.23586L5.498 11.4009H4.918L3.95799 9.23388V11.4009H2.61L2.356 10.7839H0.979996L0.723999 11.4009H0.00999451L1.19299 8.63686H2.175L3.299 11.2539V8.63686H4.377L5.242 10.5119L6.036 8.63686H7.136V11.4009H7.133ZM9.83299 11.4009H7.62599V8.63686H9.83299V9.21285H8.287V9.71285H9.79599V10.2799H8.287V10.8319H9.83299V11.4009ZM12.945 9.38085C12.9498 9.53619 12.908 9.68944 12.825 9.82079C12.7419 9.95215 12.6214 10.0556 12.479 10.1179C12.6068 10.1651 12.7196 10.2455 12.806 10.3509C12.8976 10.5031 12.936 10.6815 12.915 10.8579V11.4009H12.249V11.0519C12.2777 10.8661 12.2424 10.676 12.149 10.5129C12.0805 10.4625 12.0028 10.4262 11.9203 10.4059C11.8377 10.3857 11.752 10.3819 11.668 10.3949H10.959V11.3999H10.298V8.63586H11.818C12.0916 8.60838 12.3677 8.65395 12.618 8.76788C12.7255 8.82826 12.8134 8.91818 12.8714 9.027C12.9293 9.13582 12.9549 9.25897 12.945 9.38186V9.38085ZM14.002 11.4009H13.328V8.63686H14.002V11.4009ZM21.823 11.4009H20.887L19.635 9.32586V11.4009H18.29L18.033 10.7839H16.661L16.411 11.4009H15.638C15.4556 11.4256 15.2699 11.407 15.0961 11.3465C14.9222 11.2861 14.765 11.1855 14.6373 11.0529C14.5096 10.9203 14.415 10.7595 14.361 10.5835C14.3071 10.4075 14.2955 10.2212 14.327 10.0399C14.3116 9.84508 14.3351 9.64916 14.3962 9.46355C14.4573 9.27795 14.5548 9.10636 14.683 8.95885C14.8194 8.84064 14.9783 8.75118 15.1501 8.69585C15.322 8.64052 15.5032 8.62046 15.683 8.63686H16.323V9.22887H15.697C15.6055 9.21777 15.5127 9.22668 15.425 9.255C15.3372 9.28331 15.2567 9.33036 15.189 9.39288C15.0504 9.57086 14.9827 9.79387 14.999 10.0189C14.979 10.2501 15.0437 10.4807 15.181 10.6679C15.3097 10.7739 15.4749 10.8253 15.641 10.8109H15.941L16.872 8.63686H17.862L18.981 11.2509V8.63686H19.987L21.148 10.5619V8.63686H21.825V11.4009H21.823ZM0.000991821 11.9439H1.13L1.38499 11.3299H1.955L2.209 11.9439H4.42999V11.4749L4.63 11.9459H5.783L5.983 11.4679V11.9439H11.503V10.9359H11.61C11.685 10.9359 11.71 10.9459 11.71 11.0689V11.9439H14.565V11.7089C14.894 11.872 15.2578 11.9527 15.625 11.9439H16.825L17.082 11.3299H17.652L17.903 11.9439H20.21V11.3609L20.561 11.9439H22.41V8.08886H20.574V8.54388L20.317 8.08886H18.434V8.54388L18.198 8.08886H15.654C15.2743 8.07121 14.8962 8.14855 14.554 8.31387V8.08886H12.798V8.31387C12.5856 8.14934 12.3199 8.06919 12.052 8.08886H5.638L5.20799 9.08886L4.76599 8.08886H2.746V8.54388L2.524 8.08886H0.800003L0 9.92187L0.000991821 11.9439Z" fill="white"/>
<path d="M23.5059 13.9819H22.3059C22.2139 13.9711 22.1208 13.9885 22.0389 14.0319C22.0055 14.0528 21.9785 14.0826 21.9608 14.1179C21.9432 14.1531 21.9356 14.1926 21.9389 14.2319C21.9373 14.2773 21.9507 14.322 21.9769 14.3592C22.003 14.3964 22.0406 14.424 22.0839 14.4379C22.1665 14.4628 22.2527 14.4732 22.3389 14.4689L22.6969 14.4789C22.9664 14.4531 23.2353 14.5331 23.4469 14.7019C23.47 14.7219 23.4905 14.7447 23.5079 14.7699L23.5059 13.9819ZM23.5079 15.8059C23.3983 15.934 23.2589 16.0334 23.102 16.0951C22.9451 16.1568 22.7754 16.179 22.6079 16.1599H21.3319V15.5649H22.6029C22.6974 15.5766 22.7929 15.552 22.8699 15.4959C22.8947 15.4729 22.9144 15.4451 22.9279 15.4141C22.9413 15.3831 22.9481 15.3497 22.9479 15.3159C22.9493 15.2812 22.9427 15.2467 22.9286 15.215C22.9146 15.1833 22.8935 15.1552 22.8669 15.1329C22.7995 15.0844 22.7164 15.0626 22.6339 15.0719C22.0139 15.0509 21.2399 15.0909 21.2399 14.2159C21.2399 13.8159 21.4949 13.3929 22.1879 13.3929H23.5039V12.8429H22.2809C21.9882 12.8284 21.6985 12.9075 21.4539 13.0689V12.8429H19.6449C19.364 12.8274 19.086 12.907 18.8559 13.0689V12.8429H15.6259V13.0689C15.3549 12.914 15.0469 12.8359 14.7349 12.8429H12.6049V13.0689C12.3274 12.8943 12.0005 12.8149 11.6739 12.8429H9.28987L8.74388 13.4329L8.23288 12.8429H4.67188V16.7009H8.16588L8.72787 16.1009L9.25787 16.7009H11.4119V15.7939H11.6239C11.9367 15.8132 12.2501 15.7669 12.5439 15.6579V16.6989H14.3199V15.6939H14.4059C14.5149 15.6939 14.5259 15.6939 14.5259 15.8079V16.6999H19.9259C20.2442 16.7127 20.5587 16.6264 20.8259 16.4529V16.6999H22.5379C22.87 16.7114 23.2006 16.6507 23.5069 16.5219V15.8029L23.5079 15.8059ZM20.8729 14.7059C20.945 14.7844 21 14.877 21.0345 14.9779C21.0689 15.0787 21.082 15.1857 21.0729 15.2919C21.0729 15.8869 20.7009 16.1639 20.0349 16.1639H18.7479V15.5649H20.0299C20.1253 15.5761 20.2215 15.5515 20.2999 15.4959C20.3246 15.4729 20.3443 15.445 20.3577 15.414C20.3711 15.383 20.378 15.3496 20.3779 15.3159C20.3785 15.2813 20.3716 15.247 20.3576 15.2154C20.3436 15.1838 20.3229 15.1556 20.2969 15.1329C20.2284 15.085 20.145 15.0634 20.0619 15.0719C19.4439 15.0509 18.6699 15.0909 18.6699 14.2159C18.6699 13.8159 18.9219 13.3929 19.6149 13.3929H20.9399V13.9809H19.7279C19.6365 13.9699 19.544 13.9873 19.4629 14.0309C19.4299 14.055 19.404 14.0875 19.3876 14.1249C19.3712 14.1623 19.3649 14.2033 19.3695 14.2439C19.3741 14.2845 19.3893 14.3232 19.4136 14.356C19.4379 14.3888 19.4704 14.4146 19.5079 14.4309C19.5911 14.4558 19.6781 14.4663 19.7649 14.4619L20.1209 14.4719C20.3909 14.4501 20.6591 14.5319 20.8709 14.7009L20.8729 14.7059ZM14.9119 14.5349C14.8102 14.5824 14.6977 14.6021 14.5859 14.5919H13.7859V13.9649H14.5999C14.7074 13.9552 14.8156 13.9724 14.9149 14.0149C14.9592 14.0389 14.9956 14.0751 15.0199 14.1193C15.0442 14.1634 15.0553 14.2136 15.0519 14.2639C15.0537 14.3169 15.0414 14.3695 15.0163 14.4162C14.9912 14.4629 14.9541 14.5022 14.9089 14.5299L14.9119 14.5349ZM15.3119 14.8789C15.4396 14.9241 15.5519 15.0045 15.6359 15.1109C15.726 15.2611 15.7643 15.4368 15.7449 15.6109V16.1589H15.0819V15.8129C15.0819 15.6469 15.0979 15.3999 14.9749 15.2719C14.9064 15.2199 14.8282 15.1822 14.7449 15.1611C14.6616 15.14 14.5748 15.1358 14.4899 15.1489H13.7839V16.1589H13.1159V13.3939H14.6409C14.9126 13.3703 15.1859 13.415 15.4359 13.5239C15.5456 13.5827 15.6361 13.6719 15.6964 13.7808C15.7567 13.8897 15.7843 14.0137 15.7759 14.1379C15.7809 14.2934 15.7389 14.4468 15.6554 14.5781C15.5719 14.7094 15.4508 14.8125 15.3079 14.8739L15.3119 14.8789ZM16.1469 13.3989H18.3519V13.9709H16.8049V14.4709H18.3139V15.0349H16.8049V15.5849H18.3519V16.1589H16.1469V13.3989ZM11.6899 14.6749H10.8359V13.9749H11.6969C11.9359 13.9749 12.0969 14.0749 12.0969 14.3139C12.0969 14.5529 11.9389 14.6649 11.6849 14.6649L11.6899 14.6749ZM10.1779 15.9119L9.16388 14.7859L10.1779 13.6959V15.9119ZM7.55788 15.5869H5.93388V15.0369H7.38388V14.4649H5.93388V13.9649H7.58987L8.31288 14.7709L7.55788 15.5869ZM12.8099 14.3089C12.8099 15.0769 12.2369 15.2359 11.6589 15.2359H10.8349V16.1629H9.55087L8.73788 15.2479L7.89288 16.1629H5.27588V13.3979H7.93288L8.74588 14.3039L9.58588 13.3979H11.6969C12.2159 13.3939 12.8059 13.5389 12.8059 14.3049L12.8099 14.3089Z" fill="white"/>
<defs>
<radialGradient id="paint0_radial_71_101" cx="0" cy="0" r="1" gradientUnits="userSpaceOnUse" gradientTransform="translate(3.81614 -560.592) scale(22.0688 22.0566)">
<stop stop-color="#9DD5F6"/>
<stop offset="0.071" stop-color="#98D3F5"/>
<stop offset="0.157" stop-color="#89CEF3"/>
<stop offset="0.252" stop-color="#70C6EF"/>
<stop offset="0.351" stop-color="#4EBBEA"/>
<stop offset="0.455" stop-color="#23ADE3"/>
<stop offset="0.5" stop-color="#0DA6E0"/>
<stop offset="1" stop-color="#2E77BC"/>
</radialGradient>
</defs>
</svg>
