<svg width="67" height="68" viewBox="0 0 67 68" fill="none" xmlns="http://www.w3.org/2000/svg">
<rect x="0.478516" y="0.782715" width="66.522" height="66.522" rx="33.261" fill="#F9F9F9"/>
<path d="M56.5425 38.4414C56.5425 45.6414 50.7884 51.5323 43.7556 51.5323C36.7229 51.5323 30.9688 45.6414 30.9688 38.4414H56.5425Z" stroke="#233C52" stroke-width="1.5" stroke-miterlimit="10" stroke-linecap="round" stroke-linejoin="round"/>
<path d="M31.3359 37.9742C31.3359 37.9742 31.9753 31.2417 40.6521 32.4573C49.3289 33.6729 50.6989 32.2703 54.809 30.8677C54.809 30.8677 54.261 36.5716 50.8816 38.4417" stroke="#233C52" stroke-width="1.5" stroke-miterlimit="10" stroke-linecap="round" stroke-linejoin="round"/>
<path d="M35 36C35.4054 35.2517 36.7027 34.8308 38 35.0646" stroke="#91278F" stroke-width="1.5" stroke-miterlimit="10" stroke-linecap="round" stroke-linejoin="round"/>
<path d="M33.984 47.1378V49.008C33.984 50.1301 33.0706 51.0651 31.9746 51.0651H20.4664C19.3704 51.0651 18.457 50.1301 18.457 49.008V26.9404C18.457 25.8184 19.3704 24.8833 20.4664 24.8833H31.9746C33.0706 24.8833 33.984 25.8184 33.984 26.9404V33.5794" stroke="#233C52" stroke-width="1.5" stroke-miterlimit="10" stroke-linecap="round" stroke-linejoin="round"/>
<path d="M33.7094 29.5586C33.7094 29.5586 30.33 29.5586 26.2199 29.5586C22.1099 29.5586 18.7305 29.5586 18.7305 29.5586C18.7305 29.5586 22.1099 29.5586 26.2199 29.5586C30.33 29.5586 33.7094 29.5586 33.7094 29.5586Z" stroke="#233C52" stroke-width="1.5" stroke-miterlimit="10" stroke-linecap="round" stroke-linejoin="round"/>
<path d="M20.2832 24.4155V22.2649C20.2832 21.8909 20.6485 21.6104 21.1052 21.6104H31.3347C31.7914 21.6104 32.1567 21.8909 32.1567 22.2649V24.4155" stroke="#233C52" stroke-width="1.5" stroke-miterlimit="10" stroke-linecap="round" stroke-linejoin="round"/>
<path d="M23.9375 21.2366V17.3093C23.9375 16.8418 24.3028 16.4678 24.7595 16.4678H31.2443C31.701 16.4678 32.0663 16.8418 32.0663 17.3093V18.1509L28.4129 18.8989V21.1431" stroke="#233C52" stroke-width="1.5" stroke-miterlimit="10" stroke-linecap="round" stroke-linejoin="round"/>
<path d="M28.0479 34.2339H24.3945V42.6495H28.0479V34.2339Z" stroke="#91278F" stroke-width="1.5" stroke-miterlimit="10" stroke-linecap="round" stroke-linejoin="round"/>
</svg>
