<svg width="70" height="7" viewBox="0 0 70 7" fill="none" xmlns="http://www.w3.org/2000/svg">
<path fill-rule="evenodd" clip-rule="evenodd" d="M41.3764 2.59377H37.8594V3.43406H41.3764C41.4891 3.43514 41.5977 3.39157 41.6785 3.31285C41.7592 3.23412 41.8055 3.12666 41.8073 3.01392C41.8055 2.90117 41.7592 2.79371 41.6785 2.71499C41.5977 2.63627 41.4891 2.59269 41.3764 2.59377Z" fill="#D50006"/>
<path fill-rule="evenodd" clip-rule="evenodd" d="M36.0575 0C36.2083 0.00035451 36.3529 0.0604376 36.4596 0.1671C36.5662 0.273763 36.6263 0.418338 36.6266 0.569182V5.28625C36.6263 5.43709 36.5662 5.58167 36.4596 5.68833C36.3529 5.795 36.2083 5.85508 36.0575 5.85543C35.9066 5.85508 35.7621 5.795 35.6554 5.68833C35.5488 5.58167 35.4886 5.43709 35.4883 5.28625V0.569182C35.4886 0.418338 35.5488 0.273763 35.6554 0.1671C35.7621 0.0604376 35.9066 0.00035451 36.0575 0Z" fill="#D50006"/>
<path d="M43.5475 0.18893C43.8603 0.241283 44.0711 0.426535 44.0187 0.739308C44.0064 0.813639 43.9795 0.884804 43.9396 0.948727C43.8997 1.01265 43.8475 1.06805 43.7862 1.11181C43.7249 1.15557 43.6555 1.18681 43.5821 1.20374C43.5087 1.22067 43.4326 1.22295 43.3583 1.21046C42.3799 0.996837 41.3716 0.957296 40.3796 1.09366C40.0486 1.13536 39.7315 1.25195 39.4524 1.43454C39.1733 1.61713 38.9395 1.86093 38.7687 2.14743C38.6102 2.38624 38.5049 2.65634 38.46 2.93943C38.403 3.19955 38.4411 3.47149 38.5674 3.70594L38.6774 3.62405C38.7835 3.77306 38.8117 3.99456 38.9808 4.12343C39.1719 4.26927 39.378 4.39435 39.5956 4.49659C41.0267 5.13768 42.6463 5.21865 44.1342 4.72346C44.2764 4.66991 44.4341 4.67503 44.5725 4.73771C44.711 4.80039 44.8189 4.91549 44.8725 5.0577C44.9036 5.11629 44.921 5.18119 44.9233 5.24749C44.9257 5.3138 44.913 5.37979 44.8861 5.44044C44.8592 5.50109 44.8188 5.55482 44.7681 5.59759C44.7174 5.64035 44.6576 5.67104 44.5932 5.6873C42.8333 6.2921 40.9094 6.2062 39.2104 5.447C38.9197 5.31004 38.6443 5.14263 38.3889 4.94762C38.1427 4.75994 37.9252 4.5375 37.7431 4.28721C37.4301 3.87718 37.2783 3.36665 37.3163 2.85221C37.3695 2.387 37.5224 1.93874 37.7646 1.53802C38.0452 1.14633 38.4056 0.818521 38.8221 0.576264C39.2386 0.334006 39.7017 0.182806 40.1809 0.132561C41.2978 -0.0554401 42.4398 -0.0372709 43.5502 0.186226L43.5475 0.18893Z" fill="#D50006"/>
<path fill-rule="evenodd" clip-rule="evenodd" d="M46.7151 1.72491V5.2862C46.7148 5.43705 46.6547 5.58162 46.5481 5.68828C46.4414 5.79495 46.2968 5.85503 46.1459 5.85538C46.0732 5.85461 46.0013 5.83905 45.9348 5.80967C45.8682 5.78029 45.8084 5.7377 45.7588 5.68447C45.7092 5.63125 45.671 5.5685 45.6464 5.50004C45.6218 5.43158 45.6113 5.35882 45.6157 5.2862V2.08061C45.46 0.727501 46.8239 -0.814888 48.3649 0.628164C48.3836 0.645802 48.401 0.664666 48.4173 0.684574C48.428 0.697998 48.4374 0.71142 48.4467 0.724844C49.2871 1.82559 49.8912 3.01895 50.659 4.16668L50.6657 4.18012C50.7127 4.25798 50.7529 4.33043 50.7999 4.40695C51.255 5.07814 51.902 5.06877 51.9221 4.23247C51.9382 3.50088 51.9369 1.48732 51.8752 0.638938C51.8735 0.563742 51.8872 0.488996 51.9152 0.419197C51.9432 0.349397 51.9851 0.285985 52.0382 0.232801C52.0914 0.179617 52.1548 0.137759 52.2246 0.109739C52.2944 0.08172 52.3692 0.0681074 52.4444 0.0697566C52.5151 0.0716801 52.5846 0.0883426 52.6485 0.11867C52.7125 0.148997 52.7695 0.192305 52.8157 0.245869C52.8619 0.299434 52.8965 0.36209 52.9171 0.429766C52.9378 0.497441 52.9441 0.568681 52.9356 0.638938V3.62704C53.0173 4.30134 52.8601 4.98293 52.4913 5.55334C52.3461 5.70835 52.1676 5.82832 51.9692 5.90413C51.7709 5.97995 51.5579 6.00966 51.3463 5.99098C51.2705 5.98937 51.195 5.98081 51.1208 5.96546C50.2509 5.7829 48.5394 2.74378 48.2414 2.31154C48.1233 2.13971 48.0092 1.9786 47.9031 1.83228C47.8136 1.70699 47.7143 1.57277 47.6051 1.42958C47.1031 0.990626 46.7124 1.34503 46.7111 1.71552L46.7151 1.72491ZM50.6751 4.18815C50.7194 4.26757 50.7442 4.35635 50.7476 4.44722L50.6751 4.18815Z" fill="#D50006"/>
<path d="M27.0715 0.378839C27.042 0.30956 26.9993 0.24674 26.9456 0.194001C26.8918 0.141261 26.8283 0.0996425 26.7585 0.0714713C26.6887 0.0433002 26.614 0.0291226 26.5387 0.0298089C26.4634 0.0304953 26.389 0.0460058 26.3198 0.075445C26.2505 0.104884 26.1877 0.147705 26.1349 0.201415C26.0822 0.255126 26.0406 0.318703 26.0124 0.388507C25.9843 0.458312 25.97 0.532977 25.9707 0.608249C25.9714 0.68352 25.9869 0.757892 26.0164 0.827171C26.6215 2.2144 27.4324 3.50237 28.4219 4.64758C28.8587 5.28814 29.5038 5.75771 30.2476 5.97651C30.8731 6.05169 31.4087 5.67182 32.1658 4.99661C32.7953 4.40086 33.3252 3.70784 33.735 2.94409C34.1289 2.27255 34.4834 1.57876 34.7968 0.86613C34.8275 0.797379 34.8444 0.723241 34.8464 0.647986C34.8484 0.572731 34.8356 0.49781 34.8086 0.427507C34.7817 0.357204 34.7412 0.292892 34.6894 0.238244C34.6377 0.183596 34.5756 0.139669 34.5069 0.108996C34.4381 0.078323 34.364 0.0614971 34.2888 0.0594683C34.2135 0.0574396 34.1386 0.0702734 34.0683 0.097198C33.998 0.124123 33.9337 0.16463 33.879 0.216409C33.8244 0.268188 33.7805 0.330203 33.7498 0.398953C33.4463 1.06998 33.1052 1.72341 32.7282 2.35614C32.39 2.92397 31.1174 4.93084 30.312 4.83553C29.3119 4.71606 27.5951 1.61381 27.0662 0.377487L27.0715 0.378839Z" fill="#D50006"/>
<path fill-rule="evenodd" clip-rule="evenodd" d="M24.8914 0C25.0423 0.00035451 25.1868 0.0604376 25.2935 0.1671C25.4002 0.273763 25.4602 0.418338 25.4605 0.569182V5.28625C25.4602 5.43709 25.4002 5.58167 25.2935 5.68833C25.1868 5.795 25.0423 5.85508 24.8914 5.85543C24.7406 5.85508 24.596 5.795 24.4893 5.68833C24.3827 5.58167 24.3226 5.43709 24.3223 5.28625V0.569182C24.3226 0.418338 24.3827 0.273763 24.4893 0.1671C24.596 0.0604376 24.7406 0.00035451 24.8914 0Z" fill="#D50006"/>
<path d="M0.732184 1.3588C0.662078 1.38301 0.587839 1.39292 0.513835 1.38792C0.439832 1.38293 0.367519 1.36313 0.301304 1.32971C0.235088 1.29629 0.176318 1.2499 0.128345 1.19333C0.0803727 1.13677 0.0442346 1.07117 0.0220795 1.00038C-0.019733 0.853883 -0.00170606 0.696773 0.0723038 0.563605C0.146314 0.430438 0.270255 0.332088 0.416746 0.290239C2.25945 -0.1814 4.20794 -0.00897587 5.93921 0.778881C6.45889 1.06821 6.9046 1.4739 7.24135 1.96419C7.50253 2.39184 7.61963 2.892 7.57555 3.39116C7.52787 3.80959 7.37853 4.20996 7.14058 4.55742C6.90262 4.90488 6.5833 5.18886 6.2104 5.38457C5.80195 5.61679 5.35997 5.78433 4.90023 5.88124C4.47092 5.97258 4.03508 6.03002 3.59677 6.05305C3.20364 6.08775 2.8081 6.08507 2.41548 6.04502C1.9949 5.99143 1.58647 5.86705 1.20739 5.67719C1.03825 5.5953 0.836911 5.44229 0.804694 5.27449L0.788553 5.31877V2.0716C0.983197 1.51049 1.7712 1.67695 1.77657 2.0716L1.8517 4.71739C1.7282 5.25434 3.20347 5.0664 3.52295 5.04627C3.90242 5.02771 4.27987 4.97969 4.65189 4.90264C4.9966 4.83063 5.32806 4.70564 5.6345 4.53214C5.85488 4.40003 6.04211 4.21919 6.18173 4.00348C6.32134 3.78777 6.40969 3.54292 6.43998 3.28776C6.4614 2.99699 6.39346 2.70661 6.24531 2.4555C6.04991 2.12589 5.77654 1.84931 5.44925 1.65006C4.72369 1.28714 3.93213 1.07505 3.1223 1.0266C2.31248 0.978152 1.50117 1.09435 0.73751 1.36818L0.732184 1.3588Z" fill="#D50006"/>
<path d="M15.9563 0.37882C15.8968 0.238905 15.7842 0.128347 15.6432 0.0714527C15.5022 0.0145586 15.3444 0.0159711 15.2044 0.0754264C15.0645 0.134882 14.954 0.247512 14.8971 0.388488C14.8402 0.529465 14.8417 0.687237 14.9011 0.827152C15.5063 2.21435 16.3172 3.50232 17.3067 4.64756C17.7434 5.28812 18.3885 5.75769 19.1323 5.97649C19.7578 6.05167 20.2934 5.6718 21.0505 4.99659C21.6801 4.40086 22.21 3.70784 22.6198 2.94407C23.0136 2.27251 23.3681 1.57872 23.6815 0.866111C23.7435 0.727263 23.7478 0.569472 23.6934 0.427488C23.639 0.285505 23.5304 0.170925 23.3916 0.108978C23.2527 0.0470301 23.095 0.0428027 22.953 0.0971793C22.811 0.151556 22.6965 0.260087 22.6345 0.398935C22.331 1.06998 21.99 1.72342 21.613 2.35613C21.2747 2.92395 20.0021 4.93082 19.1967 4.83551C18.1966 4.71604 16.4797 1.61379 15.9508 0.377469L15.9563 0.37882Z" fill="#D50006"/>
<path d="M15.1638 5.63822C15.1933 5.7075 15.2362 5.77027 15.29 5.82297C15.3438 5.87568 15.4074 5.91727 15.4773 5.94538C15.5472 5.97349 15.6219 5.98757 15.6972 5.9868C15.7725 5.98603 15.8469 5.97044 15.9162 5.94092C15.9855 5.91139 16.0482 5.86853 16.101 5.81474C16.1537 5.76095 16.1953 5.69727 16.2234 5.6274C16.2515 5.55754 16.2656 5.48284 16.2648 5.40754C16.264 5.33223 16.2485 5.25781 16.2189 5.18853C15.614 3.80125 14.803 2.51326 13.8134 1.36813C13.3766 0.727563 12.7315 0.257994 11.9877 0.0391912C11.3622 -0.0359818 10.8266 0.343884 10.0695 1.0191C9.43995 1.61485 8.91012 2.30786 8.50029 3.07162C8.10649 3.74318 7.75194 4.43702 7.43845 5.14962C7.40777 5.21837 7.39091 5.29246 7.38888 5.36772C7.38685 5.44297 7.39973 5.5179 7.42665 5.5882C7.45357 5.6585 7.49408 5.72281 7.54586 5.77746C7.59764 5.83211 7.65966 5.87604 7.72841 5.90671C7.79716 5.93738 7.87125 5.95421 7.94651 5.95624C8.02176 5.95827 8.09668 5.94543 8.16699 5.91851C8.23729 5.89158 8.3016 5.85108 8.35625 5.7993C8.4109 5.74752 8.45478 5.6855 8.48546 5.61675C8.7889 4.94567 9.13002 4.29223 9.50707 3.65956C9.84535 3.09174 11.1179 1.08357 11.9233 1.18022C12.9234 1.29969 14.6402 4.40189 15.1691 5.63822H15.1638Z" fill="#D50006"/>
<path d="M54.4802 1.3588C54.4101 1.38302 54.3359 1.39292 54.2619 1.38792C54.1879 1.38293 54.1156 1.36313 54.0494 1.32971C53.9832 1.29629 53.9243 1.2499 53.8764 1.19333C53.8284 1.13677 53.7923 1.07117 53.7701 1.00038C53.7283 0.853883 53.7464 0.696773 53.8204 0.563605C53.8944 0.430438 54.0183 0.332088 54.1648 0.290239C56.0075 -0.1814 57.956 -0.00897587 59.6873 0.778882C60.207 1.06821 60.6526 1.4739 60.9894 1.96419C61.2506 2.39181 61.3678 2.892 61.3237 3.39116C61.2761 3.80962 61.1268 4.21006 60.8888 4.55754C60.6509 4.90502 60.3314 5.18895 59.9584 5.38457C59.55 5.61679 59.1081 5.78433 58.6483 5.88124C58.219 5.9726 57.7832 6.03003 57.3449 6.05305C56.9517 6.08775 56.5562 6.08508 56.1636 6.04502C55.743 5.99143 55.3345 5.86705 54.9554 5.67719C54.7863 5.5953 54.5849 5.44229 54.5527 5.27449L54.5366 5.31877V2.0716C54.7312 1.51049 55.5192 1.67695 55.5246 2.0716L55.5997 4.71739C55.4762 5.25434 56.9516 5.0664 57.2711 5.04627C57.6505 5.02767 58.0279 4.97966 58.3999 4.90264C58.7446 4.83054 59.0761 4.70557 59.3826 4.53215C59.6018 4.39935 59.7877 4.21822 59.9261 4.00254C60.0646 3.78686 60.1518 3.54235 60.1813 3.28776C60.2027 2.99699 60.1348 2.70661 59.9866 2.4555C59.7912 2.12593 59.5179 1.84935 59.1906 1.65006C58.4651 1.28714 57.6734 1.07505 56.8636 1.0266C56.0538 0.978152 55.2426 1.09435 54.4789 1.36818L54.4802 1.3588Z" fill="#D50006"/>
<path d="M62.2241 5.63822C62.1645 5.77813 62.0516 5.88861 61.9105 5.94538C61.7694 6.00215 61.6116 6.00055 61.4716 5.94092C61.3317 5.88128 61.2212 5.76851 61.1645 5.6274C61.1077 5.4863 61.1093 5.32845 61.169 5.18853C61.7741 3.80131 62.585 2.51333 63.5745 1.36813C64.0113 0.727563 64.6563 0.257994 65.4001 0.0391912C66.0257 -0.0359818 66.5613 0.343884 67.3184 1.0191C67.948 1.61483 68.4778 2.30785 68.8876 3.07162C69.2816 3.74308 69.6362 4.43692 69.9495 5.14962C69.9801 5.21837 69.9969 5.29246 69.999 5.36772C70.001 5.44297 69.9882 5.5179 69.9613 5.5882C69.9343 5.6585 69.8938 5.72281 69.8421 5.77746C69.7903 5.83211 69.7283 5.87604 69.6595 5.90671C69.5908 5.93738 69.5166 5.95421 69.4413 5.95624C69.3661 5.95827 69.2912 5.94543 69.2208 5.91851C69.1505 5.89158 69.0862 5.85108 69.0316 5.7993C68.9769 5.74752 68.9331 5.6855 68.9024 5.61675C68.5988 4.94572 68.2578 4.29229 67.8808 3.65956C67.5426 3.09174 66.27 1.08357 65.4646 1.18022C64.4645 1.29969 62.7476 4.40189 62.2187 5.63822H62.2241Z" fill="#D50006"/>
</svg>
