<svg width="55" height="15" viewBox="0 0 55 15" fill="none" xmlns="http://www.w3.org/2000/svg">
<path d="M10.5357 14.2456C12.449 14.2595 14.2934 13.5321 15.6819 12.2157C17.0705 10.8994 17.8954 9.0965 17.9836 7.1852C17.9718 6.22283 17.7692 5.27235 17.3875 4.38886C17.0057 3.50537 16.4524 2.70643 15.7597 2.03831C15.0669 1.37019 14.2485 0.846191 13.3518 0.496663C12.4551 0.147134 11.4979 -0.0209752 10.5357 0.0020891H7.1849C6.23572 -0.0194282 5.29202 0.151655 4.4108 0.505023C3.52958 0.858391 2.72912 1.38671 2.05777 2.05806C1.38643 2.72941 0.858114 3.52985 0.504746 4.41108C0.151379 5.2923 -0.0197126 6.23601 0.00180466 7.1852C0.0217734 9.07284 0.788872 10.8756 2.13515 12.1989C3.48144 13.5222 5.2972 14.2582 7.1849 14.2456H10.5357Z" fill="#005297"/>
<path d="M8.67852 10.9694V3.25375C9.45947 3.5524 10.1314 4.08104 10.6054 4.76979C11.0794 5.45855 11.3332 6.27497 11.3332 7.11108C11.3332 7.94718 11.0794 8.76358 10.6054 9.45233C10.1314 10.1411 9.45947 10.6708 8.67852 10.9694ZM3.06758 7.11055C3.06881 6.27506 3.32285 5.45952 3.79631 4.77113C4.26977 4.08275 4.94047 3.55378 5.72023 3.25375V10.9663C4.94047 10.6666 4.26972 10.1379 3.79624 9.44962C3.32276 8.76138 3.06873 7.94592 3.06758 7.11055ZM7.19938 0.589844C5.90995 0.589844 4.64947 0.972203 3.57734 1.68855C2.50521 2.4049 1.66956 3.42306 1.17607 4.61431C0.68258 5.80557 0.553409 7.11641 0.80489 8.38108C1.05637 9.64575 1.67721 10.8074 2.5889 11.7193C3.50059 12.6311 4.66219 13.2521 5.92682 13.5038C7.19145 13.7555 8.50231 13.6265 9.69364 13.1332C10.885 12.6399 11.9033 11.8044 12.6198 10.7324C13.3363 9.66039 13.7189 8.39998 13.7191 7.11055C13.7191 5.38133 13.0322 3.72291 11.8095 2.50007C10.5869 1.27723 8.9286 0.590115 7.19938 0.589844Z" fill="white"/>
<path d="M21.125 8.88515C21.125 9.46168 21.5339 9.52912 21.905 9.52912C22.2064 9.54004 22.5066 9.48549 22.7849 9.36921C23.0632 9.25293 23.3129 9.07772 23.517 8.85561C23.721 8.63349 23.8745 8.36975 23.9668 8.08262C24.0591 7.79548 24.088 7.49176 24.0516 7.19236C24.0749 6.87548 24.0308 6.55726 23.9221 6.25868C23.8135 5.96009 23.6428 5.68791 23.4214 5.46007C23.1999 5.23224 22.9327 5.05392 22.6373 4.93686C22.3419 4.8198 22.0251 4.76666 21.7077 4.78095C21.401 4.78095 21.2589 4.8024 21.123 4.81058L21.125 8.88515ZM20.3911 5.37076C20.3911 4.69712 20.0394 4.74109 19.7031 4.73393V4.53971C19.9955 4.55402 20.295 4.55403 20.5873 4.55403C20.9022 4.55403 21.3284 4.53971 21.8835 4.53971C22.2546 4.50287 22.6293 4.54251 22.9845 4.65616C23.3397 4.76982 23.6678 4.95507 23.9486 5.20049C24.2293 5.44592 24.4568 5.74632 24.617 6.08311C24.7771 6.4199 24.8665 6.78591 24.8796 7.1586C24.8796 7.90073 24.4452 9.76527 21.7936 9.76527C21.4123 9.76527 21.0596 9.74992 20.7069 9.74992C20.3543 9.74992 20.0405 9.75709 19.7031 9.76527V9.57105C20.1519 9.52607 20.3696 9.51073 20.3911 9.00167V5.37076Z" fill="#17100D"/>
<path d="M25.9421 5.19301C25.8447 5.19301 25.7512 5.15427 25.6823 5.08535C25.6134 5.01643 25.5747 4.92299 25.5747 4.82552C25.5747 4.72806 25.6134 4.63458 25.6823 4.56566C25.7512 4.49675 25.8447 4.45801 25.9421 4.45801C26.0384 4.45799 26.1308 4.49582 26.1995 4.56332C26.2681 4.63082 26.3075 4.72262 26.3091 4.81888C26.3091 4.91688 26.2707 5.01096 26.2021 5.08092C26.1335 5.15088 26.0401 5.19113 25.9421 5.19301ZM25.1407 9.57523H25.2828C25.4873 9.57523 25.6416 9.57521 25.6416 9.32682V7.29671C25.6416 6.96755 25.5292 6.92155 25.2521 6.77231V6.65271C25.6048 6.55048 26.0239 6.40535 26.0536 6.38286C26.0944 6.35846 26.141 6.34538 26.1885 6.34502C26.2253 6.34502 26.2406 6.39001 26.2406 6.44725V9.32273C26.2406 9.57113 26.4052 9.57114 26.6158 9.57114H26.7425V9.76536C26.488 9.76536 26.2253 9.75001 25.9564 9.75001C25.6876 9.75001 25.4167 9.75718 25.1387 9.76536L25.1407 9.57523Z" fill="#17100D"/>
<path d="M27.4567 7.34232C27.4567 7.0653 27.3739 6.99067 27.0223 6.84858V6.70649C27.3578 6.60391 27.6878 6.48381 28.0108 6.34668C28.0332 6.34668 28.0547 6.36201 28.0547 6.4213V6.90889C28.4133 6.58366 28.8694 6.38602 29.3519 6.34668C29.9887 6.34668 30.2126 6.81179 30.2126 7.39547V9.32744C30.2126 9.57482 30.3772 9.57482 30.5867 9.57482H30.7217V9.76905C30.459 9.76905 30.1963 9.7537 29.9274 9.7537C29.6586 9.7537 29.3877 9.76087 29.1178 9.76905V9.57482H29.2527C29.4623 9.57482 29.6115 9.57482 29.6115 9.32744V7.38524C29.6115 6.95796 29.3509 6.74838 28.9236 6.74838C28.6091 6.79749 28.3109 6.92086 28.0537 7.10822V9.32541C28.0537 9.57279 28.2193 9.57276 28.4288 9.57276H28.5638V9.76699C28.3021 9.76699 28.0394 9.75167 27.7695 9.75167C27.4996 9.75167 27.2298 9.75881 26.9609 9.76699V9.57276H27.0959C27.3054 9.57276 27.4547 9.57279 27.4547 9.32541L27.4567 7.34232Z" fill="#17100D"/>
<path d="M32.6194 7.46228C32.8064 7.46228 32.8238 7.36007 32.8238 7.27523C32.8315 7.18594 32.8202 7.09605 32.7907 7.01144C32.7611 6.92684 32.714 6.84942 32.6524 6.78434C32.5908 6.71925 32.5161 6.66796 32.4332 6.63382C32.3504 6.59967 32.2612 6.58346 32.1717 6.58625C31.7147 6.58625 31.3999 6.92255 31.3109 7.46228H32.6194ZM31.2905 7.70251C31.273 7.8468 31.273 7.99266 31.2905 8.13694C31.2769 8.45196 31.3828 8.76049 31.5869 9.00081C31.791 9.24113 32.0784 9.39554 32.3914 9.43312C32.5853 9.4225 32.775 9.37254 32.949 9.28625C33.123 9.19996 33.2776 9.07916 33.4034 8.93121L33.5056 9.03344C33.3598 9.27549 33.1578 9.47881 32.9167 9.62615C32.6756 9.7735 32.4025 9.86052 32.1205 9.87984C31.9177 9.87069 31.7188 9.82058 31.5358 9.73253C31.3529 9.64448 31.1896 9.52032 31.0559 9.36751C30.9222 9.2147 30.8208 9.0364 30.7578 8.84337C30.6948 8.65033 30.6716 8.44655 30.6894 8.24429C30.6894 6.77639 31.6779 6.34092 32.2023 6.34092C32.3637 6.33035 32.5256 6.35281 32.678 6.40696C32.8305 6.46112 32.9702 6.54583 33.0888 6.65587C33.2074 6.76592 33.3022 6.89899 33.3676 7.04697C33.4329 7.19495 33.4674 7.35471 33.4688 7.51646C33.4701 7.56153 33.4681 7.60662 33.4627 7.65139L33.3952 7.69637L31.2905 7.70251Z" fill="#17100D"/>
<path d="M33.6445 9.57485H33.849C34.0534 9.57485 34.2078 9.57485 34.2078 9.32747V7.22271C34.2078 6.99067 33.9307 6.94571 33.8183 6.88539V6.77396C34.3652 6.5409 34.6647 6.34668 34.7383 6.34668C34.7823 6.34668 34.8048 6.36917 34.8048 6.44891V7.12254H34.8211C35.0071 6.83019 35.323 6.35077 35.7789 6.35077C35.8331 6.3483 35.8873 6.35667 35.9382 6.37535C35.9892 6.39403 36.0359 6.42266 36.0757 6.45958C36.1154 6.49649 36.1475 6.54093 36.1699 6.59035C36.1923 6.63977 36.2046 6.69315 36.2062 6.74739C36.2087 6.79568 36.2015 6.84399 36.1851 6.88948C36.1687 6.93497 36.1434 6.97673 36.1106 7.01233C36.0779 7.04792 36.0384 7.07666 35.9944 7.09681C35.9504 7.11696 35.9029 7.12815 35.8546 7.12972C35.6215 7.12972 35.6215 6.94978 35.3598 6.94978C35.2092 6.97041 35.071 7.04457 34.9706 7.1587C34.8702 7.27282 34.8142 7.41928 34.8129 7.57129V9.33053C34.8129 9.57791 34.9622 9.57791 35.1717 9.57791H35.5908V9.77213C35.1819 9.76498 34.8651 9.75679 34.5431 9.75679C34.2211 9.75679 33.9216 9.76396 33.6517 9.77213L33.6445 9.57485Z" fill="#17100D"/>
<path d="M36.5307 8.72787C36.5483 8.96964 36.6543 9.19645 36.8286 9.36501C37.0028 9.53357 37.233 9.63209 37.4752 9.64175C37.551 9.65285 37.6284 9.64734 37.7019 9.62562C37.7755 9.6039 37.8434 9.56648 37.901 9.51593C37.9587 9.46539 38.0046 9.40293 38.0358 9.33288C38.0669 9.26282 38.0825 9.18683 38.0814 9.11017C38.0814 8.22596 36.4458 8.51014 36.4458 7.30495C36.4543 7.16395 36.4917 7.02621 36.5557 6.90028C36.6197 6.77436 36.709 6.66295 36.8179 6.57301C36.9269 6.48307 37.0531 6.41651 37.1889 6.37748C37.3246 6.33844 37.467 6.32778 37.607 6.34613C37.9043 6.35341 38.1961 6.42783 38.4606 6.56384L38.5138 7.32744H38.341C38.3374 7.22462 38.3132 7.12356 38.2698 7.03024C38.2265 6.93693 38.1649 6.85327 38.0886 6.78417C38.0124 6.71508 37.9231 6.66199 37.826 6.62801C37.7289 6.59403 37.6259 6.57985 37.5232 6.58633C37.452 6.57829 37.3798 6.58489 37.3112 6.60574C37.2425 6.62658 37.1789 6.66126 37.1242 6.70759C37.0694 6.75392 37.0247 6.81094 36.9928 6.87517C36.9609 6.9394 36.9424 7.00947 36.9385 7.08109C36.9385 7.95815 38.6763 7.68828 38.6763 8.86382C38.6763 9.35857 38.2797 9.88604 37.3873 9.88604C37.0665 9.8767 36.7528 9.78935 36.4734 9.63151L36.3906 8.76977L36.5307 8.72787Z" fill="#17100D"/>
<path d="M45.4404 5.89648H45.2533C45.2289 5.71057 45.168 5.5313 45.0742 5.36897C44.9804 5.20663 44.8554 5.0644 44.7065 4.95045C44.5576 4.83649 44.3877 4.75306 44.2065 4.70491C44.0253 4.65675 43.8363 4.64481 43.6505 4.66981C43.3507 4.67108 43.0544 4.73551 42.7811 4.85886C42.5078 4.9822 42.2636 5.16171 42.0642 5.38572C41.8649 5.60973 41.715 5.8732 41.6243 6.15899C41.5335 6.44478 41.504 6.74645 41.5376 7.04441C41.4937 7.68408 41.7033 8.31532 42.1211 8.80172C42.5388 9.28812 43.1311 9.59063 43.7701 9.64391C44.1348 9.64385 44.4873 9.51306 44.7638 9.27524C45.0403 9.03741 45.2223 8.70834 45.2768 8.34776L45.4486 8.39272L45.2768 9.48649C44.7578 9.73079 44.1942 9.86612 43.6208 9.88414C43.2415 9.91283 42.8604 9.86 42.5032 9.72919C42.1459 9.59839 41.8209 9.39261 41.5497 9.12575C41.2786 8.85888 41.0677 8.5371 40.9313 8.18199C40.7948 7.82688 40.736 7.44666 40.7586 7.06691C40.789 6.34201 41.1042 5.6584 41.6357 5.16457C42.1672 4.67075 42.8722 4.40662 43.5973 4.42961C44.2047 4.46165 44.8022 4.5961 45.3648 4.82726L45.4404 5.89648Z" fill="#17100D"/>
<path d="M45.713 9.57012H45.8551C46.0656 9.57012 46.2149 9.57014 46.2149 9.32277V5.15109C46.2149 4.66349 46.1025 4.64919 45.8183 4.56639V4.44679C46.0841 4.36225 46.342 4.2545 46.589 4.12479C46.6404 4.09075 46.6956 4.06296 46.7536 4.04199C46.7986 4.04199 46.8139 4.08698 46.8139 4.14422V9.31968C46.8139 9.56706 46.9785 9.56706 47.188 9.56706H47.3148V9.76128C47.0613 9.76128 46.7986 9.74593 46.5287 9.74593C46.2588 9.74593 45.99 9.75311 45.7109 9.76128L45.713 9.57012Z" fill="#17100D"/>
<path d="M50.5224 9.35937C50.5224 9.49431 50.6052 9.50147 50.7269 9.50147C50.8168 9.50147 50.9313 9.49429 51.0274 9.49429V9.65171C50.6624 9.70255 50.3016 9.78012 49.948 9.88377L49.9101 9.86128V9.25715C49.5619 9.62618 49.0874 9.8506 48.5812 9.8858C48.4664 9.88875 48.3522 9.86716 48.2464 9.82247C48.1406 9.77778 48.0455 9.71103 47.9675 9.62666C47.8895 9.54229 47.8304 9.44226 47.7942 9.33323C47.7579 9.22421 47.7454 9.10871 47.7573 8.99445V7.07574C47.7573 6.88049 47.7277 6.69343 47.3086 6.65663V6.51453C47.5785 6.50737 48.1765 6.4624 48.2746 6.4624C48.3727 6.4624 48.3574 6.51454 48.3574 6.67912V8.61112C48.3574 8.83601 48.3574 9.47998 49.0085 9.47998C49.3504 9.42546 49.6668 9.26617 49.9142 9.02408V7.00826C49.9142 6.85902 49.5544 6.77623 49.2855 6.70161V6.56669C49.9592 6.52171 50.3793 6.46446 50.4539 6.46446C50.5286 6.46446 50.5142 6.51658 50.5142 6.59938L50.5224 9.35937Z" fill="#17100D"/>
<path d="M52.0114 8.92313C52.0217 9.12382 52.1065 9.31346 52.2493 9.45489C52.392 9.59632 52.5824 9.67937 52.7832 9.68777C53.5846 9.68777 53.9219 8.90067 53.9219 8.23418C53.9394 7.88294 53.8269 7.53758 53.6059 7.264C53.3849 6.99042 53.071 6.80777 52.7239 6.75093C52.4511 6.77969 52.1974 6.90472 52.0084 7.10359L52.0114 8.92313ZM52.0114 6.88588C52.3124 6.58584 52.7056 6.39572 53.1277 6.34614C53.3237 6.35432 53.5161 6.40196 53.6933 6.4862C53.8704 6.57045 54.0288 6.68956 54.1589 6.83644C54.289 6.98331 54.3881 7.15493 54.4503 7.34099C54.5125 7.52706 54.5365 7.72375 54.521 7.91933C54.5402 8.41616 54.3631 8.9006 54.028 9.26788C53.6928 9.63515 53.2266 9.85577 52.7301 9.88199C52.3666 9.88153 52.0089 9.79165 51.6884 9.62029L51.4646 9.79202L51.3071 9.71026C51.3746 9.27051 51.4088 8.82626 51.4094 8.38136V5.16036C51.4094 4.67277 51.2969 4.65847 51.0117 4.57567V4.45606C51.278 4.37171 51.5362 4.26395 51.7835 4.13406C51.8348 4.09984 51.89 4.07204 51.9481 4.05127C51.993 4.05127 52.0074 4.09625 52.0074 4.1535L52.0114 6.88588Z" fill="#17100D"/>
<path d="M54.4411 5.94847H54.4983C54.5607 5.94847 54.5903 5.90142 54.5903 5.82578C54.5903 5.75013 54.5453 5.72358 54.4963 5.72358H54.4421L54.4411 5.94847ZM54.2785 6.20299V6.17947C54.3378 6.17129 54.3491 6.17335 54.3491 6.13655V5.77876C54.3491 5.72868 54.3439 5.71131 54.2806 5.71438V5.68983H54.5279C54.6128 5.68983 54.6915 5.72969 54.6915 5.8176C54.6912 5.85118 54.6798 5.88372 54.6591 5.91016C54.6384 5.9366 54.6095 5.95545 54.577 5.96378L54.6557 6.07419C54.6836 6.11713 54.7181 6.15541 54.758 6.18764V6.20299H54.6639C54.6189 6.20299 54.5791 6.10791 54.4901 5.98013H54.436V6.14063C54.436 6.17232 54.4472 6.17026 54.5065 6.17844V6.20196L54.2785 6.20299ZM54.5187 6.33997C54.5968 6.34201 54.6737 6.32069 54.7396 6.27877C54.8055 6.23684 54.8574 6.17622 54.8887 6.10463C54.9199 6.03305 54.9291 5.95377 54.9151 5.87694C54.901 5.8001 54.8644 5.72921 54.8098 5.67332C54.7552 5.61744 54.6853 5.57911 54.6088 5.56323C54.5323 5.54736 54.4528 5.55465 54.3805 5.5842C54.3082 5.61374 54.2463 5.66418 54.2029 5.72907C54.1594 5.79396 54.1363 5.87036 54.1364 5.94847C54.1356 6.05096 54.1753 6.14962 54.2469 6.22296C54.3186 6.29629 54.4163 6.33836 54.5187 6.33997ZM54.5187 5.46394C54.614 5.46414 54.7071 5.49256 54.7863 5.54561C54.8655 5.59866 54.9272 5.67395 54.9636 5.76201C55 5.85007 55.0095 5.94693 54.991 6.0404C54.9724 6.13387 54.9266 6.21976 54.8592 6.28722C54.7919 6.35468 54.7062 6.40069 54.6127 6.41946C54.5193 6.43822 54.4224 6.4289 54.3343 6.39266C54.2461 6.35643 54.1707 6.2949 54.1175 6.21584C54.0643 6.13679 54.0357 6.04376 54.0352 5.94847C54.034 5.88458 54.0457 5.82108 54.0695 5.76179C54.0933 5.70251 54.1289 5.64864 54.174 5.60341C54.2191 5.55818 54.2729 5.52254 54.3322 5.49857C54.3914 5.4746 54.4549 5.46283 54.5187 5.46394Z" fill="#17100D"/>
</svg>
