<svg width="53" height="20" viewBox="0 0 53 20" fill="none" xmlns="http://www.w3.org/2000/svg">
<path fill-rule="evenodd" clip-rule="evenodd" d="M43.0686 7.1179L43.0836 10.7489C43.0907 10.9846 43.1395 11.2172 43.2276 11.4359C43.7176 12.5079 45.4166 12.4099 46.4056 11.7679L45.9676 10.8539C45.6202 11.0748 45.2049 11.1632 44.7976 11.1029C44.3896 10.9819 44.4196 10.5029 44.4196 10.0239V7.08689L47.1596 7.09388L49.3596 12.1219C49.2544 12.5627 49.0675 12.9799 48.8086 13.3519C48.0466 14.4239 47.3366 13.9709 46.7246 13.8349L46.4246 14.9219C46.9226 15.1559 47.4787 15.2371 48.0228 15.1552C48.5669 15.0733 49.0746 14.8321 49.4816 14.4619C50.0855 13.6874 50.5365 12.805 50.8106 11.8619L52.9246 6.0189H51.5246L50.0376 10.5069C49.8866 10.3409 48.7376 7.46489 48.5276 6.97389C48.4131 6.65678 48.1932 6.38857 47.9048 6.21403C47.6163 6.03949 47.2767 5.96921 46.9426 6.0149C46.1116 6.0069 45.2746 6.0149 44.4206 6.0149V4.21488C43.9608 4.32655 43.5094 4.47026 43.0696 4.64491V5.99589L41.9826 6.0109L41.9896 7.08988L43.0686 7.1179ZM27.6686 6.01789L27.6836 4.6739C27.711 4.36173 27.8172 4.0616 27.992 3.80155C28.1669 3.54151 28.4048 3.33004 28.6836 3.1869C29.0181 3.05381 29.3764 2.99115 29.7362 3.00285C30.096 3.01455 30.4495 3.10036 30.7746 3.25489L30.5256 4.31989C28.9936 3.97989 29.0006 4.26691 29.0006 6.01991H30.6686L30.2376 7.0839L28.9996 7.09089V12.1039C28.5549 12.1444 28.1073 12.1394 27.6636 12.0889V7.09889L26.9916 7.0839L26.5766 6.0269L27.6686 6.01789ZM36.6816 9.22691C36.7646 12.8129 40.6606 12.6169 41.7096 11.6649C41.6122 11.3472 41.4804 11.0411 41.3166 10.7519C40.9783 10.9634 40.5947 11.0918 40.1971 11.1266C39.7996 11.1614 39.3995 11.1015 39.0296 10.9519C37.6786 10.2869 37.7766 7.77289 39.1426 7.14689C39.7252 6.91406 40.376 6.91947 40.9546 7.16191C41.1546 7.25291 41.2936 7.35089 41.4546 7.41889V6.2559C40.7167 5.87766 39.8691 5.77143 39.0606 5.95588C38.3446 6.13957 37.7152 6.56752 37.281 7.16581C36.8468 7.7641 36.6352 8.49519 36.6826 9.23289L36.6816 9.22691ZM22.4736 8.42689C22.5736 7.61189 22.8816 6.93889 23.7496 6.92689C24.5876 6.91189 24.9876 7.60589 25.0256 8.44389L22.4736 8.42689ZM26.2186 11.6649L25.8416 10.7739C25.5049 10.9151 25.1591 11.0337 24.8066 11.1289C24.5384 11.2133 24.2539 11.2328 23.9767 11.1858C23.6994 11.1389 23.4373 11.0268 23.2118 10.8588C22.9863 10.6908 22.8039 10.4717 22.6795 10.2194C22.5552 9.96721 22.4925 9.68908 22.4966 9.40791H26.3966C26.3966 8.04091 26.1546 6.47089 24.6296 5.99589C24.2771 5.88391 23.9056 5.84392 23.5373 5.87827C23.169 5.91263 22.8114 6.02064 22.4856 6.1959C20.3726 7.4639 20.4776 12.2879 24.1856 12.2429C24.9066 12.2646 25.6165 12.0612 26.2166 11.6609L26.2186 11.6649ZM32.0616 8.4419C32.1296 7.6189 32.5076 6.93191 33.3526 6.92491C34.1676 6.92491 34.5826 7.6349 34.5906 8.4419H32.0616ZM30.7026 9.31788C30.8466 11.5759 32.6026 12.6399 34.7496 12.1339C35.111 12.0193 35.4641 11.8804 35.8066 11.7179L35.4296 10.7669C34.751 11.1425 33.9556 11.2478 33.2026 11.0619C32.8652 10.9417 32.5745 10.7177 32.3723 10.4219C32.1702 10.1262 32.067 9.77397 32.0776 9.4159L35.9876 9.40888C35.9876 7.62688 35.4516 5.8839 33.3986 5.8679C31.3906 5.8459 30.5986 7.53588 30.6986 9.31788H30.7026Z" fill="black"/>
<path fill-rule="evenodd" clip-rule="evenodd" d="M11.6151 0C16.9231 0 20.4151 4.26899 19.4071 9.54199C18.8314 12.1767 17.3949 14.5448 15.3241 16.2726C13.2534 18.0004 10.6663 18.9895 7.97106 19.084C2.65706 19.084 -0.828937 14.816 0.171063 9.54199C0.748102 6.90684 2.18583 4.53871 4.25755 2.811C6.32927 1.0833 8.91712 0.0943349 11.6131 0H11.6151ZM14.1511 1.23599C15.7909 1.82214 17.1545 2.99656 17.9773 4.53134C18.8002 6.06612 19.0235 7.85183 18.6041 9.54199C18.1077 11.7955 16.9275 13.8406 15.2248 15.3979C13.522 16.9551 11.3798 17.9484 9.09106 18.242C8.73306 18.23 8.72706 18.028 8.71606 17.728C8.73306 17.105 8.75606 16.475 8.77306 15.851C8.77906 15.759 8.74506 15.73 8.70406 15.718C8.23962 15.6672 7.78137 15.5704 7.33606 15.429C6.82241 15.2163 6.33102 14.9533 5.86906 14.644C5.64306 14.534 5.66906 14.015 5.67806 13.812C5.71806 13.442 5.99006 12.582 6.42906 12.541C6.95406 12.512 7.20306 12.789 7.72306 13.041C8.20063 13.2959 8.72586 13.4492 9.26561 13.491C9.80536 13.5328 10.3479 13.4623 10.8591 13.284C10.9596 13.237 11.0492 13.1695 11.1223 13.086C11.1953 13.0024 11.2502 12.9046 11.2834 12.7987C11.3166 12.6928 11.3274 12.5811 11.3151 12.4708C11.3028 12.3605 11.2677 12.254 11.2121 12.158C10.8421 11.384 9.06906 10.749 8.26606 10.358C7.36623 10.0488 6.60531 9.43037 6.11876 8.61273C5.6322 7.79509 5.45158 6.83134 5.60906 5.89301C5.77468 5.17448 6.15613 4.52378 6.70221 4.02829C7.24829 3.5328 7.93287 3.21621 8.66406 3.121V2.42099C7.01712 2.945 5.53052 3.87928 4.34406 5.13599C3.44839 5.99431 2.73349 7.02316 2.24146 8.16196C1.74943 9.30075 1.49021 10.5265 1.47906 11.767C1.4847 13.0144 1.83647 14.2358 2.4952 15.2952C3.15393 16.3545 4.09377 17.2102 5.21006 17.767C3.62924 17.1396 2.32933 15.9606 1.55105 14.4483C0.772768 12.9361 0.568852 11.193 0.977062 9.54199C1.48523 7.22794 2.71594 5.13537 4.49138 3.56665C6.26682 1.99793 8.49504 1.0343 10.8541 0.815002C11.0391 0.925002 11.0541 0.942002 11.1491 1.19C11.1091 1.774 11.0741 2.357 11.0331 2.94C11.9368 3.06703 12.7924 3.42523 13.5171 3.97998C13.5401 5.31998 12.5351 5.87999 12.1541 5.67999C11.5574 5.4509 10.9456 5.26345 10.3231 5.11899C9.93513 5.04499 9.53386 5.09139 9.17306 5.25198C8.72306 5.46598 8.50906 5.783 8.72306 6.28C8.91506 6.62613 9.20154 6.91053 9.54906 7.10001C10.5141 7.62001 11.4791 8.14601 12.4431 8.66501C13.2113 9.07528 13.8402 9.70457 14.2501 10.473C14.5273 11.1785 14.5896 11.9502 14.4291 12.691C14.3087 13.1661 14.0923 13.6116 13.7932 14C13.4942 14.3883 13.1187 14.7113 12.6901 14.949C12.2274 15.2193 11.7238 15.4125 11.1991 15.521C11.1821 15.833 11.1711 16.139 11.1531 16.451C11.1732 16.4595 11.1947 16.4639 11.2166 16.4639C11.2384 16.4639 11.26 16.4595 11.2801 16.451C12.3558 16.0623 13.3635 15.5065 14.2661 14.804C15.5133 13.8337 16.5195 12.5883 17.2061 11.165C17.6434 10.3002 17.9359 9.3695 18.0721 8.41C18.3227 6.94718 18.0717 5.44257 17.3598 4.14032C16.6479 2.83807 15.5178 1.8146 14.1511 1.23599Z" fill="#FFB200"/>
</svg>
