<svg width="67" height="68" viewBox="0 0 67 68" fill="none" xmlns="http://www.w3.org/2000/svg">
<rect x="0.478516" y="0.782715" width="66.522" height="66.522" rx="33.261" fill="#F9F9F9"/>
<path d="M47.3058 22.3188H19.6934V50.2383C19.6934 50.9159 20.1096 51.3225 20.8034 51.3225H46.3345C46.8895 51.3225 47.4446 50.7804 47.4446 50.2383V22.3188H47.3058Z" stroke="#233C52" stroke-width="1.5" stroke-miterlimit="10" stroke-linecap="round"/>
<path d="M47.4434 22.3577V16.7683C47.4434 16.0867 47.025 15.6777 46.3278 15.6777H20.8089C20.2511 15.6777 19.6934 16.223 19.6934 16.7683V22.3577H47.4434V22.3577Z" stroke="#233C52" stroke-width="1.5" stroke-miterlimit="10" stroke-linecap="round"/>
<path d="M33.4303 43.1906C37.5685 43.1906 40.9231 39.9139 40.9231 35.8719C40.9231 31.8299 37.5685 28.5532 33.4303 28.5532C29.2922 28.5532 25.9375 31.8299 25.9375 35.8719C25.9375 39.9139 29.2922 43.1906 33.4303 43.1906Z" stroke="#233C52" stroke-width="1.5" stroke-miterlimit="10" stroke-linecap="round"/>
<path d="M33.4308 30.4507C30.517 30.4507 28.2969 32.7547 28.2969 35.4653" stroke="#91278F" stroke-width="1.5" stroke-miterlimit="10" stroke-linecap="round"/>
<path d="M22.6074 18.5239H24.4113" stroke="#91278F" stroke-width="1.5" stroke-miterlimit="10" stroke-linecap="round"/>
<path d="M27.8809 18.5239H29.5459" stroke="#91278F" stroke-width="1.5" stroke-miterlimit="10" stroke-linecap="round"/>
</svg>
