<svg width="67" height="68" viewBox="0 0 67 68" fill="none" xmlns="http://www.w3.org/2000/svg">
<rect x="0.478516" y="0.782715" width="66.522" height="66.522" rx="33.261" fill="#F9F9F9"/>
<path d="M46.6471 50H19.3529C18.0353 50 17 48.9647 17 47.6471V20.3529C17 19.0353 18.0353 18 19.3529 18H46.6471C47.9647 18 49 19.0353 49 20.3529V47.6471C49 48.9647 47.9647 50 46.6471 50Z" stroke="#233C52" stroke-width="1.5" stroke-miterlimit="10" stroke-linecap="round"/>
<path d="M28.2939 43.694C28.1998 43.8822 28.1057 44.0704 27.9175 44.2587C27.1645 44.2587 26.4116 44.2587 25.7528 44.2587C24.9998 44.2587 24.1528 44.2587 23.3998 44.2587H23.3057C23.2116 44.1646 23.1175 43.9763 23.1175 43.8822C22.4586 42.6587 21.7057 41.4351 21.0469 40.2116C21.7998 38.894 22.5528 37.4822 23.3998 36.1646C24.9057 36.1646 26.5057 36.1646 28.0116 36.1646C28.1057 36.2587 28.1998 36.4469 28.1998 36.541C28.4822 37.0116 28.7645 37.5763 29.0469 38.0469C29.4233 38.7998 29.8939 39.4587 30.2704 40.2116C29.6116 41.341 28.9528 42.4704 28.2939 43.694Z" stroke="#233C52" stroke-width="1.5" stroke-miterlimit="10" stroke-linecap="round" stroke-linejoin="round"/>
<path d="M40.1533 31.6469C42.4924 31.6469 44.3886 29.7507 44.3886 27.4116C44.3886 25.0725 42.4924 23.1763 40.1533 23.1763C37.8142 23.1763 35.918 25.0725 35.918 27.4116C35.918 29.7507 37.8142 31.6469 40.1533 31.6469Z" stroke="#233C52" stroke-width="1.5" stroke-miterlimit="10" stroke-linecap="round"/>
<path d="M40.1519 35.5996L41.6578 38.6114L45.046 39.082L42.599 41.4349L43.1637 44.8231L40.1519 43.2231L37.1402 44.8231L37.7049 41.4349L35.2578 39.082L38.646 38.6114L40.1519 35.5996Z" stroke="#91278F" stroke-width="1.5" stroke-miterlimit="10" stroke-linecap="round" stroke-linejoin="round"/>
<path d="M28.0121 31.6469H23.3062C22.2709 31.6469 21.4238 30.7998 21.4238 29.7645V25.0586C21.4238 24.0233 22.2709 23.1763 23.3062 23.1763H28.0121C29.0474 23.1763 29.8944 24.0233 29.8944 25.0586V29.7645C29.8003 30.7998 29.0474 31.6469 28.0121 31.6469Z" stroke="#233C52" stroke-width="1.5" stroke-miterlimit="10" stroke-linecap="round"/>
</svg>
