<svg width="67" height="68" viewBox="0 0 67 68" fill="none" xmlns="http://www.w3.org/2000/svg">
<rect x="0.478516" y="0.782715" width="66.522" height="66.522" rx="33.261" fill="#F9F9F9"/>
<path d="M45.0338 28.1367H39.2407H39.0338H37.3786H37.1717H31.3786C31.1717 28.1367 30.9648 28.342 30.9648 28.5472V52.0499C30.9648 52.2551 31.1717 52.4604 31.3786 52.4604H36.6545C36.8614 52.4604 36.9648 52.3578 37.0683 52.1525L38.2062 39.1183L39.3442 52.1525C39.3442 52.3578 39.5511 52.4604 39.7579 52.4604H45.1373C45.3442 52.4604 45.5511 52.2551 45.5511 52.0499V28.5472C45.4476 28.342 45.2407 28.1367 45.0338 28.1367Z" stroke="#233C52" stroke-width="1.5" stroke-miterlimit="10" stroke-linecap="round" stroke-linejoin="round"/>
<path d="M44.9307 30.395C44.9307 30.395 41.9307 30.395 38.2066 30.395C34.4824 30.395 31.4824 30.395 31.4824 30.395C31.4824 30.395 34.4824 30.395 38.2066 30.395C41.9307 30.395 44.9307 30.395 44.9307 30.395Z" stroke="#233C52" stroke-width="1.5" stroke-miterlimit="10" stroke-linecap="round" stroke-linejoin="round"/>
<path d="M37.7928 26.4948V16.9501C37.7928 16.7448 37.5859 16.5396 37.379 16.5396H33.7583C33.7583 17.9764 32.1031 19.1053 30.1376 19.1053C28.1721 19.1053 26.5169 17.9764 26.5169 16.5396H22.8962C22.6893 16.5396 22.4824 16.7448 22.4824 16.9501V35.629C22.4824 35.8343 22.6893 36.0395 22.8962 36.0395H29.1031" stroke="#233C52" stroke-width="1.5" stroke-miterlimit="10" stroke-linecap="round" stroke-linejoin="round"/>
<path d="M22.5853 16.6421L18.5508 20.1316L20.6197 25.2631L22.4818 24.5447" stroke="#233C52" stroke-width="1.5" stroke-miterlimit="10" stroke-linecap="round" stroke-linejoin="round"/>
<path d="M37.793 16.6421L41.724 20.1316L39.655 25.2631L37.793 24.5447" stroke="#233C52" stroke-width="1.5" stroke-miterlimit="10" stroke-linecap="round" stroke-linejoin="round"/>
<path d="M31.4824 22.1841H35.6204" stroke="#91278F" stroke-width="1.5" stroke-miterlimit="10" stroke-linecap="round" stroke-linejoin="round"/>
</svg>
