<svg width="45" height="18" viewBox="0 0 45 18" fill="none" xmlns="http://www.w3.org/2000/svg">
<path d="M34.2487 13.1338H29.2914C29.2167 13.1338 29.1451 13.1042 29.0923 13.0513C29.0394 12.9985 29.0098 12.9269 29.0098 12.8522C29.0098 12.7775 29.0394 12.7059 29.0923 12.653C29.1451 12.6002 29.2167 12.5706 29.2914 12.5706H34.2219C34.6588 12.4797 35.0514 12.2418 35.3339 11.8964C35.6165 11.551 35.7721 11.1191 35.7746 10.6729C35.8324 9.15733 34.9629 9.00551 34.8257 8.99084H31.6437C31.1892 8.91554 30.7804 8.6699 30.5006 8.3039C30.2208 7.9379 30.091 7.47904 30.1376 7.02071C30.1476 6.44079 30.3556 5.88172 30.7269 5.43617C31.0983 4.99062 31.6107 4.68536 32.1793 4.57098C32.1989 4.56693 32.2188 4.5649 32.2388 4.56494H36.7027C36.7774 4.56494 36.849 4.59461 36.9018 4.64743C36.9547 4.70024 36.9843 4.77188 36.9843 4.84657C36.9843 4.92127 36.9547 4.99291 36.9018 5.04572C36.849 5.09854 36.7774 5.12821 36.7027 5.12821H32.2716C31.8349 5.22261 31.4425 5.46102 31.1575 5.80515C30.8725 6.14929 30.7114 6.5792 30.7 7.02588C30.7 7.03278 30.7 7.03969 30.7 7.04659C30.6717 7.36038 30.7589 7.67372 30.9452 7.92782C31.1314 8.18192 31.404 8.3593 31.7118 8.42672H34.8525C34.868 8.42672 36.4224 8.54489 36.3404 10.6927C36.3336 11.2711 36.1272 11.8293 35.7561 12.2729C35.3849 12.7165 34.8719 13.0182 34.3039 13.1269C34.2857 13.1311 34.2672 13.1334 34.2487 13.1338Z" fill="#004F9B"/>
<path d="M43.5917 13.164H39.02H38.9898C38.386 13.0993 37.2388 12.6801 37.2129 11.5527C37.3674 9.87272 37.6378 8.20541 38.022 6.56267C38.0249 6.55006 38.0286 6.53767 38.0332 6.52558C38.0608 6.45054 38.7336 4.68311 40.2233 4.68311H43.5141C43.5406 4.68313 43.567 4.6869 43.5926 4.69432C43.6503 4.71071 45.0003 5.1144 45.0003 6.27629C44.9601 7.18097 44.8604 8.08202 44.7018 8.97359C44.6905 9.0385 44.6568 9.09737 44.6065 9.13993C44.5562 9.1825 44.4925 9.20605 44.4267 9.20648L38.06 9.25996C37.907 10.0118 37.8124 10.7743 37.777 11.5406C37.7969 12.4127 38.8984 12.5844 39.0373 12.6033H43.5917C43.6664 12.6033 43.738 12.633 43.7908 12.6858C43.8436 12.7386 43.8733 12.8103 43.8733 12.885C43.8733 12.9597 43.8436 13.0313 43.7908 13.0841C43.738 13.1369 43.6664 13.1666 43.5917 13.1666V13.164ZM38.5646 6.70327C38.5326 6.84732 38.3446 7.71249 38.16 8.69325L44.1825 8.64322C44.3177 7.85966 44.4018 7.06816 44.4344 6.27371C44.4344 5.61556 43.6434 5.30503 43.4675 5.24378H40.2207C39.1804 5.24465 38.6284 6.54283 38.5646 6.69982V6.70327Z" fill="#004F9B"/>
<path d="M20.7061 16.8583C20.689 16.8585 20.672 16.857 20.6552 16.854C20.6188 16.8474 20.5841 16.8338 20.553 16.8138C20.5219 16.7938 20.4951 16.7679 20.474 16.7376C20.4529 16.7072 20.4381 16.673 20.4302 16.6369C20.4224 16.6007 20.4217 16.5634 20.4283 16.5271C20.4283 16.5271 20.8769 14.0471 21.3289 11.5672C21.5549 10.3268 21.7809 9.0873 21.9525 8.15658C22.0388 7.69079 22.1104 7.30263 22.1621 7.03523C22.1878 6.87706 22.2221 6.72041 22.2648 6.56598H22.2596C22.4374 6.11614 22.7123 5.71107 23.0646 5.37963C23.4169 5.04818 23.838 4.79853 24.2979 4.64846C24.3234 4.64517 24.3492 4.64517 24.3746 4.64846C24.561 4.6545 26.3456 4.64846 27.5239 4.64846C27.7965 4.64242 29.256 5.19447 29.0861 6.35033C29.0861 6.36068 29.0861 6.37104 29.0861 6.38053L28.3011 11.1748C28.3011 11.1851 28.3011 11.1955 28.2942 11.2058C28.1629 11.6398 27.9315 12.0368 27.6184 12.3648C27.3054 12.6928 26.9196 12.9426 26.4923 13.094C26.4687 13.101 26.4444 13.1047 26.4198 13.1052L23.5267 13.1915C23.5153 13.1926 23.5037 13.1926 23.4922 13.1915C22.8155 13.0804 22.208 12.7116 21.7973 12.1624C21.4859 13.8738 21.1745 15.5912 20.9847 16.6392C20.9705 16.7022 20.935 16.7583 20.8843 16.7982C20.8335 16.8381 20.7706 16.8593 20.7061 16.8583ZM21.9422 11.3447C22.0884 11.6664 22.3083 11.9491 22.584 12.1702C22.8597 12.3912 23.1835 12.5442 23.5293 12.617L26.3629 12.5359C26.6882 12.4073 26.9808 12.2078 27.2195 11.9521C27.4582 11.6964 27.637 11.3908 27.743 11.0574L28.5194 6.29944C28.6004 5.76895 27.7879 5.20224 27.4541 5.20397H25.929H24.8387C24.6343 5.20397 24.4868 5.20396 24.379 5.19706C24.0239 5.33457 23.7002 5.54224 23.4272 5.80768C23.1542 6.07312 22.9375 6.39087 22.7901 6.74195C22.7418 6.96708 22.3588 9.05453 21.9413 11.3438L21.9422 11.3447Z" fill="#004F9B"/>
<path d="M16.9017 3.45378C16.9017 3.6092 16.8556 3.76113 16.7693 3.89035C16.6829 4.01958 16.5602 4.1203 16.4166 4.17978C16.273 4.23925 16.115 4.25481 15.9626 4.22449C15.8102 4.19417 15.6701 4.11933 15.5602 4.00943C15.4503 3.89954 15.3755 3.75952 15.3452 3.60709C15.3149 3.45465 15.3304 3.29665 15.3899 3.15307C15.4494 3.00948 15.5501 2.88675 15.6793 2.8004C15.8085 2.71406 15.9605 2.66797 16.1159 2.66797C16.3243 2.66797 16.5242 2.75076 16.6715 2.89813C16.8189 3.04549 16.9017 3.24537 16.9017 3.45378Z" fill="#FFA600"/>
<path d="M14.3385 1.57162C14.7725 1.57162 15.1244 1.2198 15.1244 0.785812C15.1244 0.35182 14.7725 0 14.3385 0C13.9046 0 13.5527 0.35182 13.5527 0.785812C13.5527 1.2198 13.9046 1.57162 14.3385 1.57162Z" fill="#FFA600"/>
<path d="M13.3372 3.45378C13.3372 3.6092 13.2912 3.76113 13.2048 3.89035C13.1185 4.01958 12.9957 4.1203 12.8522 4.17978C12.7086 4.23925 12.5506 4.25481 12.3981 4.22449C12.2457 4.19417 12.1057 4.11933 11.9958 4.00943C11.8859 3.89954 11.811 3.75952 11.7807 3.60709C11.7504 3.45465 11.766 3.29665 11.8254 3.15307C11.8849 3.00948 11.9856 2.88675 12.1149 2.8004C12.2441 2.71406 12.396 2.66797 12.5514 2.66797C12.7598 2.66797 12.9597 2.75076 13.1071 2.89813C13.2545 3.04549 13.3372 3.24537 13.3372 3.45378Z" fill="#FFA600"/>
<path d="M16.026 14.9364C16.46 14.9364 16.8119 14.5845 16.8119 14.1506C16.8119 13.7166 16.46 13.3647 16.026 13.3647C15.5921 13.3647 15.2402 13.7166 15.2402 14.1506C15.2402 14.5845 15.5921 14.9364 16.026 14.9364Z" fill="#FFA600"/>
<path d="M14.3327 12.429C14.7667 12.429 15.1185 12.0772 15.1185 11.6432C15.1185 11.2092 14.7667 10.8574 14.3327 10.8574C13.8987 10.8574 13.5469 11.2092 13.5469 11.6432C13.5469 12.0772 13.8987 12.429 14.3327 12.429Z" fill="#FFA600"/>
<path d="M10.8683 12.2917C11.227 12.2917 11.5178 12.0009 11.5178 11.6422C11.5178 11.2835 11.227 10.9927 10.8683 10.9927C10.5096 10.9927 10.2188 11.2835 10.2188 11.6422C10.2188 12.0009 10.5096 12.2917 10.8683 12.2917Z" fill="#FFA600"/>
<path d="M13.2502 14.1529C13.2502 14.2814 13.2121 14.407 13.1408 14.5138C13.0694 14.6206 12.9679 14.7039 12.8493 14.753C12.7306 14.8022 12.6 14.815 12.474 14.79C12.348 14.7649 12.2322 14.7031 12.1414 14.6122C12.0506 14.5214 11.9887 14.4057 11.9637 14.2797C11.9386 14.1537 11.9515 14.0231 12.0006 13.9044C12.0498 13.7857 12.133 13.6843 12.2398 13.6129C12.3467 13.5415 12.4722 13.5034 12.6007 13.5034C12.773 13.5034 12.9382 13.5719 13.06 13.6937C13.1818 13.8155 13.2502 13.9807 13.2502 14.1529Z" fill="#FFA600"/>
<path d="M10.8214 17.549C11.1801 17.549 11.4709 17.2582 11.4709 16.8995C11.4709 16.5408 11.1801 16.25 10.8214 16.25C10.4627 16.25 10.1719 16.5408 10.1719 16.8995C10.1719 17.2582 10.4627 17.549 10.8214 17.549Z" fill="#FFA600"/>
<path d="M9.14047 14.654C9.41868 14.654 9.64421 14.4284 9.64421 14.1502C9.64421 13.872 9.41868 13.6465 9.14047 13.6465C8.86225 13.6465 8.63672 13.872 8.63672 14.1502C8.63672 14.4284 8.86225 14.654 9.14047 14.654Z" fill="#FFA600"/>
<path d="M2.95101 9.39128C3.22923 9.39128 3.45476 9.16575 3.45476 8.88754C3.45476 8.60932 3.22923 8.38379 2.95101 8.38379C2.6728 8.38379 2.44727 8.60932 2.44727 8.88754C2.44727 9.16575 2.6728 9.39128 2.95101 9.39128Z" fill="#FFA600"/>
<path d="M3.85336 6.70818C4.13157 6.70818 4.3571 6.48264 4.3571 6.20443C4.3571 5.92622 4.13157 5.70068 3.85336 5.70068C3.57514 5.70068 3.34961 5.92622 3.34961 6.20443C3.34961 6.48264 3.57514 6.70818 3.85336 6.70818Z" fill="#FFA600"/>
<path d="M6.06218 3.45394C6.06218 3.55361 6.03261 3.65104 5.97722 3.7339C5.92183 3.81676 5.84311 3.88133 5.75101 3.91943C5.65891 3.95753 5.55758 3.96746 5.45984 3.94795C5.3621 3.92844 5.27234 3.88038 5.20193 3.80984C5.13151 3.73931 5.0836 3.64946 5.06426 3.55169C5.04492 3.45392 5.05502 3.3526 5.09328 3.26057C5.13154 3.16854 5.19624 3.08992 5.27919 3.03468C5.36215 2.97943 5.45963 2.95003 5.5593 2.9502C5.69275 2.95042 5.82066 3.0036 5.91494 3.09804C6.00923 3.19249 6.06218 3.32049 6.06218 3.45394Z" fill="#FFA600"/>
<path d="M7.7946 0.844683C7.79477 0.944388 7.76535 1.0419 7.71006 1.12487C7.65478 1.20785 7.57611 1.27255 7.48403 1.31078C7.39195 1.34901 7.29059 1.35906 7.19279 1.33965C7.09499 1.32024 7.00515 1.27225 6.93465 1.20175C6.86415 1.13124 6.81616 1.04141 6.79675 0.943608C6.77734 0.84581 6.78738 0.74445 6.82562 0.652367C6.86385 0.560284 6.92855 0.481624 7.01153 0.426337C7.0945 0.37105 7.19201 0.341627 7.29172 0.341798C7.42502 0.342026 7.5528 0.395083 7.64706 0.489343C7.74132 0.583603 7.79438 0.711379 7.7946 0.844683Z" fill="#FFA600"/>
<path d="M7.33773 17.404C7.61594 17.404 7.84148 17.1784 7.84148 16.9002C7.84148 16.622 7.61594 16.3965 7.33773 16.3965C7.05952 16.3965 6.83398 16.622 6.83398 16.9002C6.83398 17.1784 7.05952 17.404 7.33773 17.404Z" fill="#FFA600"/>
<path d="M5.60726 14.654C5.88548 14.654 6.11101 14.4284 6.11101 14.1502C6.11101 13.872 5.88548 13.6465 5.60726 13.6465C5.32905 13.6465 5.10352 13.872 5.10352 14.1502C5.10352 14.4284 5.32905 14.654 5.60726 14.654Z" fill="#FFA600"/>
<path d="M3.82992 12.1471C4.10813 12.1471 4.33367 11.9216 4.33367 11.6434C4.33367 11.3652 4.10813 11.1396 3.82992 11.1396C3.55171 11.1396 3.32617 11.3652 3.32617 11.6434C3.32617 11.9216 3.55171 12.1471 3.82992 12.1471Z" fill="#FFA600"/>
<path d="M2.87682 14.4104C3.02022 14.4104 3.13646 14.2941 3.13646 14.1508C3.13646 14.0074 3.02022 13.8911 2.87682 13.8911C2.73343 13.8911 2.61719 14.0074 2.61719 14.1508C2.61719 14.2941 2.73343 14.4104 2.87682 14.4104Z" fill="#FFA600"/>
<path d="M1.25768 11.9016C1.40108 11.9016 1.51732 11.7854 1.51732 11.642C1.51732 11.4986 1.40108 11.3823 1.25768 11.3823C1.11429 11.3823 0.998047 11.4986 0.998047 11.642C0.998047 11.7854 1.11429 11.9016 1.25768 11.9016Z" fill="#FFA600"/>
<path d="M0.517549 8.84081C0.517549 8.89199 0.502372 8.94202 0.473937 8.98458C0.445503 9.02713 0.405088 9.0603 0.357803 9.07988C0.310518 9.09947 0.258487 9.10459 0.20829 9.09461C0.158092 9.08463 0.111984 9.05998 0.0757933 9.02379C0.0396031 8.9876 0.014957 8.94148 0.00497218 8.89128C-0.00501269 8.84109 0.000112733 8.78906 0.0196988 8.74178C0.0392848 8.69449 0.0724525 8.65407 0.115008 8.62564C0.157563 8.5972 0.207593 8.58203 0.258774 8.58203C0.327405 8.58203 0.393227 8.6093 0.441756 8.65783C0.490286 8.70636 0.517549 8.77218 0.517549 8.84081Z" fill="#FFA600"/>
<path d="M1.18347 6.46752C1.32686 6.46752 1.4431 6.35127 1.4431 6.20788C1.4431 6.06449 1.32686 5.94824 1.18347 5.94824C1.04007 5.94824 0.923828 6.06449 0.923828 6.20788C0.923828 6.35127 1.04007 6.46752 1.18347 6.46752Z" fill="#FFA600"/>
<path d="M2.93932 3.73851C3.08272 3.73851 3.19896 3.62227 3.19896 3.47888C3.19896 3.33548 3.08272 3.21924 2.93932 3.21924C2.79593 3.21924 2.67969 3.33548 2.67969 3.47888C2.67969 3.62227 2.79593 3.73851 2.93932 3.73851Z" fill="#FFA600"/>
<path d="M7.31359 12.2917C7.67231 12.2917 7.96311 12.0009 7.96311 11.6422C7.96311 11.2835 7.67231 10.9927 7.31359 10.9927C6.95486 10.9927 6.66406 11.2835 6.66406 11.6422C6.66406 12.0009 6.95486 12.2917 7.31359 12.2917Z" fill="#FFA600"/>
<path d="M5.48546 9.5427C5.84418 9.5427 6.13498 9.2519 6.13498 8.89318C6.13498 8.53445 5.84418 8.24365 5.48546 8.24365C5.12674 8.24365 4.83594 8.53445 4.83594 8.89318C4.83594 9.2519 5.12674 9.5427 5.48546 9.5427Z" fill="#FFA600"/>
<path d="M7.93772 6.20372C7.93772 6.33219 7.89963 6.45777 7.82825 6.56458C7.75688 6.6714 7.65544 6.75465 7.53676 6.80381C7.41807 6.85297 7.28748 6.86583 7.16148 6.84077C7.03549 6.8157 6.91975 6.75385 6.82891 6.66301C6.73807 6.57217 6.67621 6.45643 6.65115 6.33044C6.62609 6.20444 6.63895 6.07385 6.68811 5.95516C6.73728 5.83648 6.82053 5.73504 6.92734 5.66367C7.03415 5.5923 7.15973 5.5542 7.28819 5.5542C7.46046 5.5542 7.62567 5.62263 7.74748 5.74444C7.86929 5.86625 7.93772 6.03146 7.93772 6.20372Z" fill="#FFA600"/>
<path d="M9.09093 4.10227C9.44965 4.10227 9.74045 3.81147 9.74045 3.45275C9.74045 3.09402 9.44965 2.80322 9.09093 2.80322C8.73221 2.80322 8.44141 3.09402 8.44141 3.45275C8.44141 3.81147 8.73221 4.10227 9.09093 4.10227Z" fill="#FFA600"/>
<path d="M10.798 1.44651C11.1567 1.44651 11.4475 1.15571 11.4475 0.796985C11.4475 0.438263 11.1567 0.147461 10.798 0.147461C10.4392 0.147461 10.1484 0.438263 10.1484 0.796985C10.1484 1.15571 10.4392 1.44651 10.798 1.44651Z" fill="#FFA600"/>
<path d="M9.04753 9.67904C9.48152 9.67904 9.83334 9.32723 9.83334 8.89323C9.83334 8.45924 9.48152 8.10742 9.04753 8.10742C8.61354 8.10742 8.26172 8.45924 8.26172 8.89323C8.26172 9.32723 8.61354 9.67904 9.04753 9.67904Z" fill="#FFA600"/>
<path d="M10.7995 6.99057C11.2335 6.99057 11.5853 6.63875 11.5853 6.20476C11.5853 5.77077 11.2335 5.41895 10.7995 5.41895C10.3655 5.41895 10.0137 5.77077 10.0137 6.20476C10.0137 6.63875 10.3655 6.99057 10.7995 6.99057Z" fill="#FFA600"/>
<path d="M14.3327 17.6864C14.7667 17.6864 15.1185 17.3345 15.1185 16.9006C15.1185 16.4666 14.7667 16.1147 14.3327 16.1147C13.8987 16.1147 13.5469 16.4666 13.5469 16.9006C13.5469 17.3345 13.8987 17.6864 14.3327 17.6864Z" fill="#FFA600"/>
<path d="M21.0695 8.61523H9.44531V9.09655H21.0695V8.61523Z" fill="#FFA600"/>
<path d="M15.0365 5.96289H11.3809V6.44421H15.0365V5.96289Z" fill="#FFA600"/>
<path d="M16.6053 9.07014L14.5938 5.96484H15.1553L17.1668 9.07014H16.6053Z" fill="#FFA600"/>
<path d="M16.8122 11.4014H14.9473V11.8827H16.8122V11.4014Z" fill="#FFA600"/>
<path d="M16.3672 11.8807L18.0354 9.06787H18.5167L16.8485 11.8807H16.3672Z" fill="#FFA600"/>
</svg>
