<svg width="67" height="67" viewBox="0 0 67 67" fill="none" xmlns="http://www.w3.org/2000/svg">
<rect width="66.522" height="66.522" rx="33.261" fill="#F9F9F9"/>
<path d="M39.0512 50.74H26.0938V49.6315C26.1117 49.1918 26.2954 48.7752 26.6078 48.4654C26.9203 48.1556 27.3384 47.9756 27.7782 47.9614H37.3668C37.5905 47.9468 37.8149 47.9798 38.0249 48.0584C38.2349 48.1369 38.4259 48.2592 38.5851 48.4171C38.7444 48.5749 38.8683 48.7648 38.9486 48.9742C39.029 49.1835 39.064 49.4076 39.0512 49.6315V50.74Z" stroke="#233C52" stroke-width="1.5" stroke-miterlimit="10"/>
<path d="M47.4014 41.0795H17.7431C17.2095 41.0911 16.6928 40.8922 16.3048 40.5258C15.9168 40.1593 15.6887 39.6548 15.6699 39.1214V19.4404C15.6994 19.0408 15.8821 18.6679 16.1799 18.3997C16.4776 18.1314 16.8674 17.9885 17.268 18.0007H47.8765C48.2756 17.9887 48.6638 18.1321 48.9592 18.4006C49.2546 18.6692 49.4342 19.042 49.4602 19.4404V39.1358C49.4414 39.6654 49.2148 40.1662 48.8295 40.53C48.4442 40.8938 47.9311 41.0911 47.4014 41.0795V41.0795Z" stroke="#233C52" stroke-width="1.5" stroke-miterlimit="10"/>
<path d="M52.4252 50.7404H12.7177C12.3947 50.7545 12.0742 50.6785 11.792 50.5209C11.5097 50.3632 11.2769 50.1302 11.1196 49.8477C11.0129 49.6125 10.9765 49.3514 11.0148 49.096C11.0531 48.8405 11.1645 48.6016 11.3356 48.408L15.7843 42.03C15.9912 41.7408 16.2745 41.5148 16.6025 41.3775C16.9305 41.2402 17.2903 41.1969 17.6415 41.2526H47.5158C47.8361 41.2081 48.1626 41.25 48.4613 41.374C48.76 41.4981 49.0201 41.6997 49.2146 41.9581V41.9581L53.7786 48.408C53.9482 48.6028 54.0565 48.8434 54.0898 49.0996C54.1231 49.3557 54.0799 49.616 53.9657 49.8477C53.8142 50.1223 53.5907 50.3505 53.3193 50.5078C53.0479 50.665 52.7388 50.7454 52.4252 50.7404V50.7404Z" stroke="#233C52" stroke-width="1.5" stroke-miterlimit="10"/>
<path d="M44.8085 38.2578H20.0597C19.6418 38.2864 19.2289 38.1527 18.907 37.8845C18.5852 37.6163 18.3792 37.2343 18.332 36.8181V21.8162C18.3578 21.4889 18.5111 21.1849 18.7588 20.9695C19.0065 20.7541 19.3289 20.6445 19.6566 20.6644H45.1253C45.4529 20.6445 45.7753 20.7541 46.023 20.9695C46.2707 21.1849 46.424 21.4889 46.4498 21.8162V36.7749C46.4168 37.1847 46.2286 37.5665 45.9235 37.8421C45.6184 38.1178 45.2196 38.2665 44.8085 38.2578Z" stroke="#233C52" stroke-width="1.5" stroke-miterlimit="10"/>
<path d="M32.0391 23.1689H33.1045" stroke="#91278F" stroke-width="1.5" stroke-miterlimit="10" stroke-linecap="round"/>
</svg>
