<svg width="81" height="8" viewBox="0 0 81 8" fill="none" xmlns="http://www.w3.org/2000/svg">
<path d="M25.7205 0H26.2852H26.8216L30.0401 7.4817H28.7132L26.2852 1.43987L24.7606 5.08191H26.2005L25.8052 6.01359H24.45L23.8289 7.4817H22.502L25.7205 0Z" fill="#233C52"/>
<path d="M9.9375 0H11.1797V7.4817H9.9375V0Z" fill="#233C52"/>
<path d="M5.5901 1.07285H3.64204V7.4817H2.39979V1.07285H0V0H6.04183L5.5901 1.07285Z" fill="#233C52"/>
<path d="M20.6389 1.07285H18.6909V7.4817H17.4486V1.07285H15.0488V0H21.0907L20.6389 1.07285Z" fill="#233C52"/>
<path d="M54.5743 0V1.07285H51.0734V3.30324H53.1062L52.7109 4.29139H51.1016V6.43709H54.6025V7.4817H49.8594V0H54.5743Z" fill="#233C52"/>
<path d="M38.9058 0L41.7855 4.0373L44.6653 0H45.7664V7.4817H44.5523V1.8916L41.9267 5.5054H41.6444L39.0187 1.8916V7.4817H37.8047V0H38.9058Z" fill="#233C52"/>
<path d="M63.1007 0.451725C63.6654 0.734054 64.1171 1.15755 64.4277 1.7222C64.7382 2.28686 64.8794 2.93622 64.8794 3.72673C64.8794 4.48902 64.7382 5.16661 64.4277 5.73127C64.1171 6.29592 63.6936 6.71942 63.1289 7.02998C62.5643 7.34054 61.8867 7.4817 61.1244 7.4817H58.4141V0H61.0962C61.8585 0 62.5361 0.141164 63.1007 0.451725ZM62.9031 5.73127C63.3548 5.27954 63.5807 4.60195 63.5807 3.72673C63.5807 2.85152 63.3548 2.20216 62.9031 1.75044C62.4514 1.29871 61.802 1.07285 60.9268 1.07285H59.6281V6.43709H60.9833C61.802 6.43709 62.4514 6.18299 62.9031 5.73127Z" fill="#233C52"/>
<path d="M68.5781 0H69.8204V7.4817H68.5781V0Z" fill="#233C52"/>
<path d="M76.6795 0H77.2159H77.2441H77.7806L80.9991 7.4817H79.6722L77.2441 1.43987L75.7196 5.08191H77.1594L76.7924 6.01359H75.409L74.7879 7.4817H73.4609L76.6795 0Z" fill="#233C52"/>
</svg>
