<svg width="35" height="11" viewBox="0 0 35 11" fill="none" xmlns="http://www.w3.org/2000/svg">
<g clip-path="url(#clip0_71_186)">
<path d="M30.617 2.75884H30.223C29.6273 4.01455 29.186 5.33788 28.909 6.69984H31.409C31.2363 5.36947 30.9717 4.05265 30.617 2.75884ZM34.428 10.5118H32.194C32.063 10.5118 32.063 10.5118 31.931 10.3808L31.668 9.19984L31.537 8.93684H28.383C28.252 8.93684 28.12 8.93684 28.12 9.19984L27.726 10.3828C27.7263 10.4001 27.7231 10.4173 27.7166 10.4333C27.7101 10.4493 27.7005 10.4639 27.6882 10.4761C27.676 10.4883 27.6615 10.4979 27.6455 10.5044C27.6294 10.5109 27.6123 10.5141 27.595 10.5138H24.835L25.098 9.85684L28.909 0.919844C28.909 0.262844 29.303 -0.000156347 29.96 -0.000156347H31.931C32.062 -0.000156347 32.194 -0.00015682 32.194 0.262843L34.034 8.80384C34.1848 9.27184 34.2733 9.75771 34.297 10.2488C34.427 10.3808 34.427 10.3808 34.427 10.5118H34.428ZM16.82 10.1178L17.346 7.75284C17.4457 7.76651 17.5381 7.81254 17.609 7.88384C18.4628 8.30952 19.4175 8.49153 20.368 8.40984C20.689 8.38386 21.0017 8.29447 21.288 8.14684C21.945 7.88384 21.945 7.22684 21.419 6.70184C21.0878 6.45358 20.7362 6.2338 20.368 6.04484C19.8407 5.81662 19.3529 5.50609 18.923 5.12484C18.6213 4.88235 18.3757 4.5775 18.2028 4.23119C18.03 3.88488 17.934 3.5053 17.9216 3.11845C17.9091 2.7316 17.9805 2.34663 18.1307 1.98993C18.281 1.63323 18.5065 1.31322 18.792 1.05184C19.579 0.525844 19.973 -0.000156347 21.024 -0.000156347C22.3873 -0.0721144 23.7543 0.0161554 25.097 0.262843H25.228C25.1148 1.02194 24.9381 1.77022 24.7 2.49984C24.0815 2.20329 23.413 2.0249 22.729 1.97384C22.3301 1.95227 21.9305 1.99653 21.546 2.10484C21.4443 2.10673 21.3442 2.13133 21.2532 2.17683C21.1622 2.22233 21.0826 2.28759 21.02 2.36784C20.9577 2.42716 20.908 2.49852 20.8741 2.57759C20.8402 2.65666 20.8228 2.74181 20.8228 2.82784C20.8228 2.91388 20.8402 2.99902 20.8741 3.0781C20.908 3.15717 20.9577 3.22853 21.02 3.28784L21.677 3.81384C22.1734 4.04862 22.6558 4.31172 23.122 4.60184C23.4774 4.79137 23.7895 5.05286 24.0383 5.36966C24.2871 5.68646 24.4671 6.05161 24.567 6.44184C24.7046 7.00607 24.6649 7.59902 24.4532 8.13983C24.2414 8.68064 23.8681 9.14299 23.384 9.46384C23.1527 9.72061 22.8683 9.92406 22.5506 10.0601C22.2329 10.1962 21.8895 10.2616 21.544 10.2518C20.0498 10.3828 18.5445 10.2942 17.076 9.98884C16.945 10.2518 16.945 10.2518 16.813 10.1198L16.82 10.1178ZM12.22 10.5118C12.2522 10.0645 12.3406 9.62308 12.483 9.19784C13.14 6.30684 13.797 3.28484 14.323 0.397843C14.454 0.134843 14.454 0.00384336 14.717 0.00384336H17.082C16.8518 1.41951 16.5447 2.82159 16.162 4.20384C15.768 6.17484 15.374 8.14584 14.848 10.1168C14.848 10.3798 14.717 10.3798 14.454 10.3798L12.22 10.5118ZM0 0.262843C0 0.130843 0.263 -0.000156347 0.394 -0.000156347H4.862C5.17104 -0.0133126 5.4744 0.0858886 5.71596 0.2791C5.95752 0.47231 6.12094 0.746459 6.176 1.05084L7.359 6.83284C7.359 6.96384 7.359 6.96384 7.49 7.09584C7.48973 7.07857 7.49293 7.06141 7.49942 7.04539C7.50591 7.02938 7.51555 7.01483 7.52777 7.00261C7.53999 6.99039 7.55454 6.98075 7.57055 6.97427C7.58657 6.96778 7.60372 6.96457 7.621 6.96484L10.38 0.264844C10.249 0.133844 10.38 0.00184351 10.511 0.00184351H13.27C13.27 0.132844 13.27 0.132844 13.139 0.264844L9.066 9.85684C8.935 10.1198 8.935 10.2508 8.803 10.3828C8.671 10.5148 8.409 10.3828 8.146 10.3828H6.176C6.045 10.3828 5.913 10.3828 5.913 10.1198L3.813 1.97284C3.49705 1.60818 3.08825 1.33588 2.63 1.18484C1.83381 0.843227 0.991275 0.621809 0.13 0.527844L0 0.262843Z" fill="#142688"/>
</g>
<defs>
<clipPath id="clip0_71_186">
<rect width="34.427" height="10.512" fill="white"/>
</clipPath>
</defs>
</svg>
