<svg width="49" height="18" viewBox="0 0 49 18" fill="none" xmlns="http://www.w3.org/2000/svg">
<path d="M19.21 0H3.7C2.82 0 2.1 0.72 2.11 1.61C2.11 1.87 2.17 2.12 2.29 2.34L3.84 5.28H1.03C0.46 5.28 0 5.74 0 6.31C0 6.48 0.04 6.65 0.12 6.8L5.11 16.24C5.38 16.74 6 16.94 6.51 16.67C6.69 16.57 6.84 16.42 6.94 16.24L8.29 13.69L9.99 16.91C10.41 17.69 11.38 17.98 12.16 17.56C12.44 17.41 12.66 17.18 12.81 16.91L20.58 2.28C20.98 1.52 20.69 0.58 19.93 0.18C19.71 0.06 19.47 0 19.21 0ZM12.25 6.25L8.9 12.56C8.72 12.9 8.31 13.02 7.97 12.85C7.85 12.79 7.75 12.69 7.68 12.56L4.36 6.28C4.18 5.94 4.31 5.52 4.64 5.35C4.74 5.3 4.85 5.27 4.96 5.27H11.65C12.02 5.27 12.32 5.57 12.32 5.94C12.32 6.05 12.3 6.15 12.25 6.25Z" fill="#233C52"/>
<path d="M35.7104 6.79015H34.0104V12.6002C34.0104 12.7102 33.9204 12.8002 33.8104 12.8002H32.5004C32.3904 12.8002 32.3004 12.7102 32.3004 12.6002V6.79015H30.6004C30.4904 6.79015 30.4004 6.71015 30.4004 6.61015C30.4004 6.61015 30.4004 6.61015 30.4004 6.60015V5.57015C30.4004 5.46015 30.4904 5.38015 30.5904 5.38015C30.5904 5.38015 30.5904 5.38015 30.6004 5.38015H35.7104C35.8204 5.37015 35.9104 5.46015 35.9204 5.57015V6.60015C35.9104 6.71015 35.8204 6.79015 35.7104 6.79015Z" fill="#233C52"/>
<path d="M41.1609 12.7598C40.4909 12.8598 39.8209 12.8998 39.1409 12.8898C37.8509 12.8898 36.7109 12.5598 36.7109 10.7398V7.41981C36.7109 5.59981 37.8609 5.27981 39.1509 5.27981C39.8209 5.26981 40.4909 5.30981 41.1609 5.40981C41.3009 5.42981 41.3609 5.47981 41.3609 5.60981V6.53981C41.3609 6.64981 41.2709 6.73981 41.1609 6.73981H39.0509C38.5809 6.73981 38.4109 6.89981 38.4109 7.41981V8.32981H41.0809C41.1909 8.32981 41.2809 8.41981 41.2809 8.52981V9.47981C41.2809 9.58981 41.1909 9.67981 41.0809 9.67981H38.4109V10.7398C38.4109 11.2598 38.5809 11.4198 39.0509 11.4198H41.1609C41.2709 11.4198 41.3609 11.5098 41.3609 11.6198V12.5498C41.3609 12.6798 41.3009 12.7398 41.1609 12.7598Z" fill="#233C52"/>
<path d="M48.6905 12.7999H47.1005C46.9905 12.8099 46.8905 12.7499 46.8405 12.6499L45.4605 10.4599L44.2105 12.5999C44.1405 12.7199 44.0705 12.7999 43.9605 12.7999H42.4805C42.4105 12.8099 42.3405 12.7599 42.3305 12.6899C42.3305 12.6799 42.3305 12.6799 42.3305 12.6699C42.3305 12.6499 42.3405 12.6199 42.3505 12.5999L44.5105 8.98988L42.3305 5.56988C42.3205 5.54988 42.3105 5.52988 42.3105 5.50988C42.3205 5.42988 42.3805 5.37988 42.4605 5.37988H44.0705C44.1805 5.37988 44.2605 5.47988 44.3205 5.56988L45.6005 7.58988L46.8405 5.56988C46.8805 5.46988 46.9805 5.39988 47.0905 5.37988H48.5705C48.6505 5.37988 48.7105 5.42988 48.7205 5.50988C48.7205 5.52988 48.7105 5.54988 48.7005 5.56988L46.5205 9.01988L48.7905 12.6099C48.8105 12.6399 48.8205 12.6699 48.8205 12.7099C48.8205 12.7599 48.7705 12.7999 48.6905 12.7999Z" fill="#233C52"/>
<path d="M28.0095 5.3999C27.9395 5.3999 27.8695 5.4499 27.8595 5.5199L26.4095 10.8899C26.3895 10.9999 26.3595 11.0399 26.2695 11.0399C26.1795 11.0399 26.1495 10.9999 26.1295 10.8899L24.6795 5.5199C24.6595 5.4499 24.5995 5.3999 24.5195 5.3999H23.0895C22.9995 5.3999 22.9395 5.4699 22.9395 5.5499C22.9395 5.5599 22.9395 5.5699 22.9395 5.5899C22.9395 5.5899 24.7095 11.7399 24.7295 11.7999C24.9195 12.4799 25.5695 12.9299 26.2695 12.8799C26.9695 12.9099 27.5995 12.4599 27.8095 11.7999C27.8395 11.7199 29.5695 5.5799 29.5695 5.5799C29.5895 5.4999 29.5395 5.4099 29.4595 5.3999C29.4495 5.3999 29.4395 5.3999 29.4195 5.3999H28.0095Z" fill="#233C52"/>
<path d="M19.21 0H3.7C2.82 0 2.1 0.72 2.11 1.61C2.11 1.87 2.17 2.12 2.29 2.34L3.84 5.28H1.03C0.46 5.28 0 5.74 0 6.31C0 6.48 0.04 6.65 0.12 6.8L5.11 16.24C5.38 16.74 6 16.94 6.51 16.67C6.69 16.57 6.84 16.42 6.94 16.24L8.29 13.69L9.99 16.91C10.41 17.69 11.38 17.98 12.16 17.56C12.44 17.41 12.66 17.18 12.81 16.91L20.58 2.28C20.98 1.52 20.69 0.58 19.93 0.18C19.71 0.06 19.47 0 19.21 0ZM12.25 6.25L8.9 12.56C8.72 12.9 8.31 13.02 7.97 12.85C7.85 12.79 7.75 12.69 7.68 12.56L4.36 6.28C4.18 5.94 4.31 5.52 4.64 5.35C4.74 5.3 4.85 5.27 4.96 5.27H11.65C12.02 5.27 12.32 5.57 12.32 5.94C12.32 6.05 12.3 6.15 12.25 6.25Z" fill="#233C52"/>
</svg>
